<?xml version="1.0" encoding="UTF-8"?>
<svg xmlns="http://www.w3.org/2000/svg" xmlns:xlink="http://www.w3.org/1999/xlink" viewBox="0 0 30 30" width="40px" height="40px">
<g id="surface34873803">
<path style=" stroke:none;fill-rule:nonzero;fill:rgb(99.215686%,85.882354%,53.725493%);fill-opacity:1;" d="M 20.699219 24.898438 L 8.699219 24.898438 C 6.710938 24.898438 5.101562 23.289062 5.101562 21.300781 L 5.101562 9.300781 C 5.101562 7.3125 6.710938 5.699219 8.699219 5.699219 L 20.699219 5.699219 C 22.6875 5.699219 24.300781 7.3125 24.300781 9.300781 L 24.300781 21.300781 C 24.300781 23.289062 22.6875 24.898438 20.699219 24.898438 Z M 20.699219 24.898438 "/>
<path style=" stroke:none;fill-rule:nonzero;fill:rgb(100%,100%,100%);fill-opacity:1;" d="M 22.199219 3.75 C 21.953125 3.75 21.75 3.953125 21.75 4.199219 C 21.75 4.449219 21.953125 4.648438 22.199219 4.648438 L 24.71875 4.648438 L 15.585938 13.78125 C 15.410156 13.957031 15.410156 14.242188 15.585938 14.417969 C 15.761719 14.59375 16.046875 14.59375 16.222656 14.417969 L 25.351562 5.285156 L 25.351562 7.800781 C 25.351562 8.046875 25.550781 8.25 25.800781 8.25 C 26.046875 8.25 26.25 8.046875 26.25 7.800781 L 26.25 3.75 Z M 22.199219 3.75 "/>
<path style=" stroke:none;fill-rule:nonzero;fill:rgb(12.156863%,12.941177%,16.862746%);fill-opacity:1;" d="M 20.699219 24.898438 L 8.699219 24.898438 C 6.714844 24.898438 5.101562 23.285156 5.101562 21.300781 L 5.101562 9.300781 C 5.101562 7.316406 6.714844 5.699219 8.699219 5.699219 L 20.699219 5.699219 C 21.042969 5.699219 21.382812 5.75 21.710938 5.84375 C 21.871094 5.890625 21.960938 6.058594 21.917969 6.214844 C 21.871094 6.375 21.707031 6.464844 21.542969 6.421875 C 21.269531 6.339844 20.988281 6.300781 20.699219 6.300781 L 8.699219 6.300781 C 7.046875 6.300781 5.699219 7.644531 5.699219 9.300781 L 5.699219 21.300781 C 5.699219 22.953125 7.046875 24.300781 8.699219 24.300781 L 20.699219 24.300781 C 22.355469 24.300781 23.699219 22.953125 23.699219 21.300781 L 23.699219 9.300781 C 23.699219 9.023438 23.664062 8.75 23.589844 8.484375 C 23.542969 8.328125 23.636719 8.160156 23.796875 8.117188 C 23.957031 8.070312 24.121094 8.164062 24.164062 8.324219 C 24.253906 8.640625 24.300781 8.96875 24.300781 9.300781 L 24.300781 21.300781 C 24.300781 23.285156 22.683594 24.898438 20.699219 24.898438 Z M 20.699219 24.898438 "/>
<path style=" stroke:none;fill-rule:nonzero;fill:rgb(12.156863%,12.941177%,16.862746%);fill-opacity:1;" d="M 15.90625 14.699219 C 15.902344 14.699219 15.902344 14.699219 15.902344 14.699219 C 15.742188 14.699219 15.59375 14.636719 15.480469 14.523438 C 15.246094 14.289062 15.246094 13.910156 15.480469 13.675781 L 24.355469 4.800781 L 22.199219 4.800781 C 21.867188 4.800781 21.601562 4.53125 21.601562 4.199219 C 21.601562 3.867188 21.867188 3.601562 22.199219 3.601562 L 26.25 3.601562 C 26.332031 3.601562 26.398438 3.667969 26.398438 3.75 L 26.398438 7.800781 C 26.398438 8.132812 26.132812 8.398438 25.800781 8.398438 C 25.46875 8.398438 25.199219 8.132812 25.199219 7.800781 L 25.199219 5.648438 L 16.328125 14.523438 C 16.214844 14.636719 16.066406 14.699219 15.90625 14.699219 Z M 22.199219 3.898438 C 22.035156 3.898438 21.898438 4.035156 21.898438 4.199219 C 21.898438 4.367188 22.035156 4.5 22.199219 4.5 L 24.71875 4.5 C 24.777344 4.5 24.832031 4.535156 24.855469 4.59375 C 24.878906 4.648438 24.867188 4.714844 24.824219 4.757812 L 15.691406 13.886719 C 15.574219 14.003906 15.574219 14.195312 15.691406 14.3125 C 15.75 14.371094 15.824219 14.402344 15.902344 14.402344 L 15.90625 14.402344 C 15.984375 14.402344 16.058594 14.371094 16.117188 14.3125 L 25.242188 5.179688 C 25.285156 5.136719 25.351562 5.125 25.40625 5.148438 C 25.464844 5.171875 25.5 5.226562 25.5 5.285156 L 25.5 7.800781 C 25.5 7.964844 25.632812 8.101562 25.800781 8.101562 C 25.964844 8.101562 26.101562 7.964844 26.101562 7.800781 L 26.101562 3.898438 Z M 22.199219 3.898438 "/>
<path style=" stroke:none;fill-rule:nonzero;fill:rgb(12.156863%,12.941177%,16.862746%);fill-opacity:1;" d="M 20.699219 23.398438 L 8.699219 23.398438 C 7.542969 23.398438 6.601562 22.457031 6.601562 21.300781 L 6.601562 9.300781 C 6.601562 8.140625 7.542969 7.199219 8.699219 7.199219 L 19.351562 7.199219 C 19.433594 7.199219 19.5 7.265625 19.5 7.351562 C 19.5 7.433594 19.433594 7.5 19.351562 7.5 L 8.699219 7.5 C 7.707031 7.5 6.898438 8.308594 6.898438 9.300781 L 6.898438 21.300781 C 6.898438 22.292969 7.707031 23.101562 8.699219 23.101562 L 20.699219 23.101562 C 21.691406 23.101562 22.5 22.292969 22.5 21.300781 L 22.5 15.898438 C 22.5 15.816406 22.566406 15.75 22.648438 15.75 C 22.734375 15.75 22.800781 15.816406 22.800781 15.898438 L 22.800781 21.300781 C 22.800781 22.457031 21.859375 23.398438 20.699219 23.398438 Z M 22.648438 15 C 22.566406 15 22.5 14.933594 22.5 14.851562 L 22.5 13.648438 C 22.5 13.566406 22.566406 13.5 22.648438 13.5 C 22.734375 13.5 22.800781 13.566406 22.800781 13.648438 L 22.800781 14.851562 C 22.800781 14.933594 22.734375 15 22.648438 15 Z M 22.648438 13.199219 C 22.566406 13.199219 22.5 13.132812 22.5 13.050781 L 22.5 12.449219 C 22.5 12.367188 22.566406 12.300781 22.648438 12.300781 C 22.734375 12.300781 22.800781 12.367188 22.800781 12.449219 L 22.800781 13.050781 C 22.800781 13.132812 22.734375 13.199219 22.648438 13.199219 Z M 22.648438 13.199219 "/>
</g>
</svg>
