<?xml version="1.0" encoding="UTF-8"?>
<svg xmlns="http://www.w3.org/2000/svg" xmlns:xlink="http://www.w3.org/1999/xlink" viewBox="0 0 20 20" width="40px" height="40px">
<g id="surface34690599">
<path style="fill-rule:nonzero;fill:rgb(100%,100%,100%);fill-opacity:1;stroke-width:6;stroke-linecap:butt;stroke-linejoin:round;stroke:rgb(0%,0%,0%);stroke-opacity:1;stroke-miterlimit:10;" d="M 156.526006 111.803893 C 156.526006 122.236734 148.040628 130.722112 137.607787 130.722112 C 135.590771 130.722112 133.678083 130.409126 131.869724 129.817932 C 128.426886 136.49495 121.506435 141.050625 113.507923 141.050625 C 107.735084 141.050625 102.518664 138.651071 98.797617 134.825696 C 92.329255 142.824208 82.452832 147.9363 71.39402 147.9363 C 51.919383 147.9363 36.131016 132.147933 36.131016 112.673296 C 36.131016 112.360311 36.165792 112.047325 36.165792 111.769116 C 35.852807 111.769116 35.574598 111.803893 35.261613 111.803893 C 24.341906 111.803893 15.47399 102.935977 15.47399 92.01627 C 15.47399 82.522384 22.185785 74.558649 31.158029 72.680737 C 32.653402 59.848342 43.538334 49.867591 56.753266 49.867591 C 59.570133 49.867591 62.282672 50.354457 64.82133 51.189084 C 68.820586 35.609374 82.939698 24.063696 99.771349 24.063696 C 119.698076 24.063696 135.86898 40.234601 135.86898 60.196104 C 135.86898 60.23088 135.86898 60.23088 135.86898 60.23088 C 145.919284 64.056255 153.083168 73.758798 153.083168 85.130595 C 153.083168 89.616716 151.970332 93.824629 150.022868 97.545676 C 153.987348 101.02329 156.526006 106.100606 156.526006 111.803893 Z M 156.526006 111.803893 " transform="matrix(0.112326,0,0,0.112326,0.34,0.34)"/>
<path style="fill-rule:nonzero;fill:rgb(99.215686%,98.823529%,93.725491%);fill-opacity:1;stroke-width:6;stroke-linecap:butt;stroke-linejoin:round;stroke:rgb(0%,0%,0%);stroke-opacity:1;stroke-miterlimit:10;" d="M 106.657024 104.048814 C 102.379559 104.048814 98.901945 100.605976 98.901945 96.328511 C 98.901945 92.051046 102.379559 88.573432 106.657024 88.573432 C 106.970009 88.573432 107.282995 88.642985 107.561204 88.677761 C 107.943741 85.721789 110.447623 83.426564 113.507923 83.426564 C 115.385835 83.426564 117.020313 84.295967 118.13315 85.617461 C 117.959269 84.921938 117.820164 84.191639 117.820164 83.426564 C 117.820164 78.662233 121.680316 74.836858 126.40987 74.836858 C 131.000321 74.836858 134.721367 78.4188 134.9648 82.974474 C 136.390622 81.166115 138.581519 79.983726 141.050625 79.983726 C 145.32809 79.983726 148.770927 83.46134 148.770927 87.704029 C 148.770927 88.05179 148.736151 88.329999 148.701375 88.642985 C 152.596302 89.060298 155.656603 92.294479 155.656603 96.328511 C 155.656603 100.605976 152.178989 104.048814 147.9363 104.048814 C 145.745403 104.048814 138.47719 104.048814 138.47719 104.048814 L 138.47719 104.918217 L 133.295546 104.918217 L 133.295546 104.048814 C 133.295546 104.048814 110.899713 104.048814 106.657024 104.048814 Z M 106.657024 104.048814 " transform="matrix(0.112326,0,0,0.112326,0.34,0.34)"/>
<path style="fill-rule:nonzero;fill:rgb(0%,0%,0%);fill-opacity:1;stroke-width:6;stroke-linecap:butt;stroke-linejoin:round;stroke:rgb(0%,0%,0%);stroke-opacity:1;stroke-miterlimit:10;" d="M 126.40987 73.967454 C 130.82644 73.967454 134.547487 76.992978 135.555995 81.131339 C 137.086145 79.844622 139.033609 79.114323 141.050625 79.114323 C 145.780179 79.114323 149.640331 82.974474 149.640331 87.704029 C 149.640331 87.773581 149.640331 87.87791 149.640331 87.947462 C 153.60481 88.712537 156.526006 92.190151 156.526006 96.328511 C 156.526006 101.058066 152.665855 104.918217 147.9363 104.918217 L 138.47719 104.918217 C 137.990324 104.918217 137.607787 104.53568 137.607787 104.048814 C 137.607787 103.596724 137.990324 103.214186 138.47719 103.214186 L 147.9363 103.214186 C 151.726899 103.214186 154.787199 100.11911 154.787199 96.328511 C 154.787199 92.781345 152.144213 89.860149 148.597047 89.512388 C 148.353614 89.477612 148.144957 89.373284 148.005852 89.199403 C 147.866748 89.025522 147.797195 88.782089 147.831971 88.538656 L 147.866748 88.295223 C 147.901524 88.121343 147.9363 87.912686 147.9363 87.704029 C 147.9363 83.91343 144.841224 80.85313 141.050625 80.85313 C 138.92928 80.85313 136.981816 81.792085 135.660323 83.496116 C 135.486442 83.704773 135.24301 83.843878 134.9648 83.843878 C 134.895248 83.843878 134.79092 83.809101 134.721367 83.774325 C 134.373606 83.669997 134.130173 83.357012 134.130173 83.00925 C 133.88674 78.905666 130.513455 75.671485 126.40987 75.671485 C 122.167182 75.671485 118.689568 79.149099 118.689568 83.426564 C 118.689568 84.017758 118.75912 84.643729 118.967777 85.408804 C 119.072105 85.791341 118.898225 86.208655 118.550463 86.382536 C 118.411359 86.452088 118.272254 86.486864 118.13315 86.486864 C 117.889717 86.486864 117.646284 86.382536 117.472403 86.173879 C 116.498671 84.956714 115.038073 84.295967 113.507923 84.295967 C 110.934489 84.295967 108.743592 86.208655 108.430607 88.782089 C 108.361055 89.199403 108.013293 89.547164 107.59598 89.547164 C 107.526428 89.547164 107.491651 89.547164 107.456875 89.512388 L 107.213442 89.512388 C 107.039562 89.477612 106.830905 89.442836 106.657024 89.442836 C 102.831649 89.442836 99.771349 92.537912 99.771349 96.328511 C 99.771349 100.11911 102.831649 103.214186 106.657024 103.214186 L 133.295546 103.214186 C 133.782412 103.214186 134.164949 103.596724 134.164949 104.048814 C 134.164949 104.53568 133.782412 104.918217 133.295546 104.918217 L 106.657024 104.918217 C 101.892693 104.918217 98.032542 101.058066 98.032542 96.328511 C 98.032542 91.56418 101.892693 87.704029 106.657024 87.704029 C 106.726576 87.704029 106.796129 87.738805 106.900457 87.738805 C 107.665532 84.713281 110.378071 82.55716 113.507923 82.55716 C 114.725088 82.55716 115.907477 82.904922 116.950761 83.496116 C 116.950761 83.46134 116.950761 83.46134 116.950761 83.426564 C 116.950761 78.210143 121.19345 73.967454 126.40987 73.967454 Z M 126.40987 73.967454 " transform="matrix(0.112326,0,0,0.112326,0.34,0.34)"/>
<path style="fill-rule:nonzero;fill:rgb(0%,0%,0%);fill-opacity:1;stroke-width:6;stroke-linecap:butt;stroke-linejoin:round;stroke:rgb(0%,0%,0%);stroke-opacity:1;stroke-miterlimit:10;" d="M 123.836436 85.999998 C 124.288526 85.999998 124.740616 86.06955 125.262258 86.208655 C 125.470915 86.278207 125.610019 86.52164 125.540467 86.765073 C 125.505691 86.938954 125.33181 87.078058 125.123153 87.078058 C 125.088377 87.078058 125.053601 87.043282 125.018825 87.043282 C 124.566735 86.904178 124.184198 86.869402 123.836436 86.869402 C 121.610763 86.869402 119.767628 88.608208 119.558971 90.833881 C 119.558971 90.972986 119.454643 91.11209 119.315538 91.181643 C 119.245986 91.216419 119.21121 91.216419 119.141658 91.216419 C 119.037329 91.216419 118.933001 91.181643 118.863449 91.11209 C 118.272254 90.590448 117.507179 90.312239 116.742104 90.312239 C 114.968521 90.312239 113.507923 91.738061 113.507923 93.511644 C 113.507923 93.650749 113.438371 93.789853 113.334043 93.894181 C 113.26449 93.928958 113.160162 93.963734 113.09061 93.963734 C 113.021057 93.963734 112.986281 93.963734 112.951505 93.963734 C 112.499415 93.824629 112.082102 93.755077 111.699564 93.755077 C 109.508667 93.755077 107.700308 95.459108 107.526428 97.650004 C 107.526428 97.858661 107.317771 98.032542 107.109114 98.032542 C 107.109114 98.032542 107.074338 98.032542 107.074338 98.032542 C 106.830905 98.032542 106.657024 97.823885 106.657024 97.580452 C 106.865681 94.937466 109.056578 92.885673 111.699564 92.885673 C 112.012549 92.885673 112.360311 92.92045 112.708072 92.990002 C 112.951505 90.972986 114.690312 89.442836 116.742104 89.442836 C 117.472403 89.442836 118.202702 89.651493 118.828672 90.03403 C 119.350314 87.704029 121.436883 85.999998 123.836436 85.999998 Z M 147.727643 88.573432 C 147.971076 88.573432 148.179733 88.608208 148.423166 88.642985 C 148.666599 88.677761 148.805703 88.886418 148.805703 89.129851 C 148.770927 89.338507 148.56227 89.512388 148.353614 89.512388 C 148.353614 89.512388 148.318837 89.477612 148.318837 89.477612 C 148.110181 89.477612 147.9363 89.442836 147.727643 89.442836 C 145.814955 89.442836 144.110925 90.729553 143.589283 92.572688 C 143.554507 92.746569 143.380626 92.885673 143.206745 92.885673 C 143.137193 92.885673 143.102417 92.885673 143.067641 92.850897 C 142.858984 92.816121 142.719879 92.572688 142.789431 92.329255 C 143.415402 90.138359 145.432418 88.573432 147.727643 88.573432 Z M 147.727643 88.573432 " transform="matrix(0.112326,0,0,0.112326,0.34,0.34)"/>
<path style="fill-rule:nonzero;fill:rgb(99.215686%,85.882354%,53.725493%);fill-opacity:1;stroke-width:6;stroke-linecap:butt;stroke-linejoin:round;stroke:rgb(0%,0%,0%);stroke-opacity:1;stroke-miterlimit:10;" d="M 26.671907 87.704029 L 9.457718 87.704029 C 8.970853 87.704029 8.588315 87.321491 8.588315 86.869402 C 8.588315 86.382536 8.970853 85.999998 9.457718 85.999998 L 26.671907 85.999998 C 27.123997 85.999998 27.506534 86.382536 27.506534 86.869402 C 27.506534 87.321491 27.123997 87.704029 26.671907 87.704029 Z M 31.818775 87.704029 L 30.114744 87.704029 C 29.627878 87.704029 29.245341 87.321491 29.245341 86.869402 C 29.245341 86.382536 29.627878 85.999998 30.114744 85.999998 L 31.818775 85.999998 C 32.305641 85.999998 32.688179 86.382536 32.688179 86.869402 C 32.688179 87.321491 32.305641 87.704029 31.818775 87.704029 Z M 40.408481 91.146867 L 24.9331 91.146867 C 24.48101 91.146867 24.063696 90.764329 24.063696 90.312239 C 24.063696 89.825373 24.48101 89.442836 24.9331 89.442836 L 40.408481 89.442836 C 40.895347 89.442836 41.277885 89.825373 41.277885 90.312239 C 41.277885 90.764329 40.895347 91.146867 40.408481 91.146867 Z M 21.490262 91.146867 L 19.786231 91.146867 C 19.299366 91.146867 18.916828 90.764329 18.916828 90.312239 C 18.916828 89.825373 19.299366 89.442836 19.786231 89.442836 L 21.490262 89.442836 C 21.977128 89.442836 22.359666 89.825373 22.359666 90.312239 C 22.359666 90.764329 21.977128 91.146867 21.490262 91.146867 Z M 16.343394 91.146867 L 12.900556 91.146867 C 12.41369 91.146867 12.031153 90.764329 12.031153 90.312239 C 12.031153 89.825373 12.41369 89.442836 12.900556 89.442836 L 16.343394 89.442836 C 16.83026 89.442836 17.212797 89.825373 17.212797 90.312239 C 17.212797 90.764329 16.83026 91.146867 16.343394 91.146867 Z M 26.671907 94.589704 L 23.229069 94.589704 C 22.742203 94.589704 22.359666 94.207167 22.359666 93.755077 C 22.359666 93.268211 22.742203 92.885673 23.229069 92.885673 L 26.671907 92.885673 C 27.123997 92.885673 27.506534 93.268211 27.506534 93.755077 C 27.506534 94.207167 27.123997 94.589704 26.671907 94.589704 Z M 32.688179 79.983726 C 32.688179 80.470592 32.305641 80.85313 31.818775 80.85313 C 31.50579 80.85313 30.392954 80.85313 30.114744 80.85313 C 29.627878 80.85313 29.245341 80.470592 29.245341 79.983726 C 29.245341 79.49686 29.627878 79.114323 30.114744 79.114323 C 30.392954 79.114323 31.50579 79.114323 31.818775 79.114323 C 32.305641 79.114323 32.688179 79.49686 32.688179 79.983726 Z M 32.688179 83.426564 C 32.688179 83.878654 32.305641 84.295967 31.818775 84.295967 C 31.50579 84.295967 23.507278 84.295967 23.229069 84.295967 C 22.742203 84.295967 22.359666 83.878654 22.359666 83.426564 C 22.359666 82.939698 22.742203 82.55716 23.229069 82.55716 C 23.507278 82.55716 31.50579 82.55716 31.818775 82.55716 C 32.305641 82.55716 32.688179 82.939698 32.688179 83.426564 Z M 41.277885 86.869402 C 41.277885 87.321491 40.895347 87.704029 40.408481 87.704029 C 40.130272 87.704029 35.574598 87.704029 35.261613 87.704029 C 34.774747 87.704029 34.392209 87.321491 34.392209 86.869402 C 34.392209 86.382536 34.774747 85.999998 35.261613 85.999998 C 35.574598 85.999998 40.130272 85.999998 40.408481 85.999998 C 40.895347 85.999998 41.277885 86.382536 41.277885 86.869402 Z M 41.277885 86.869402 " transform="matrix(0.112326,0,0,0.112326,0.34,0.34)"/>
<path style="fill-rule:nonzero;fill:rgb(99.215686%,85.882354%,53.725493%);fill-opacity:1;stroke-width:6;stroke-linecap:butt;stroke-linejoin:round;stroke:rgb(0%,0%,0%);stroke-opacity:1;stroke-miterlimit:10;" d="M 124.70584 41.277885 L 107.491651 41.277885 C 107.039562 41.277885 106.657024 40.895347 106.657024 40.408481 C 106.657024 39.956391 107.039562 39.573854 107.491651 39.573854 L 124.70584 39.573854 C 125.15793 39.573854 125.575243 39.956391 125.575243 40.408481 C 125.575243 40.895347 125.15793 41.277885 124.70584 41.277885 Z M 131.591515 41.277885 L 128.148677 41.277885 C 127.661811 41.277885 127.279274 40.895347 127.279274 40.408481 C 127.279274 39.956391 127.661811 39.573854 128.148677 39.573854 L 131.591515 39.573854 C 132.043605 39.573854 132.426142 39.956391 132.426142 40.408481 C 132.426142 40.895347 132.043605 41.277885 131.591515 41.277885 Z M 140.181221 44.720722 L 122.967033 44.720722 C 122.514943 44.720722 122.132406 44.338185 122.132406 43.851319 C 122.132406 43.399229 122.514943 43.016692 122.967033 43.016692 L 140.181221 43.016692 C 140.668087 43.016692 141.050625 43.399229 141.050625 43.851319 C 141.050625 44.338185 140.668087 44.720722 140.181221 44.720722 Z M 119.524195 44.720722 L 117.820164 44.720722 C 117.333298 44.720722 116.950761 44.338185 116.950761 43.851319 C 116.950761 43.399229 117.333298 43.016692 117.820164 43.016692 L 119.524195 43.016692 C 120.011061 43.016692 120.393599 43.399229 120.393599 43.851319 C 120.393599 44.338185 120.011061 44.720722 119.524195 44.720722 Z M 114.342551 44.720722 L 110.934489 44.720722 C 110.482399 44.720722 110.065086 44.338185 110.065086 43.851319 C 110.065086 43.399229 110.482399 43.016692 110.934489 43.016692 L 114.342551 43.016692 C 114.79464 43.016692 115.177178 43.399229 115.177178 43.851319 C 115.177178 44.338185 114.79464 44.720722 114.342551 44.720722 Z M 129.852708 37.835047 L 121.263002 37.835047 C 120.776136 37.835047 120.393599 37.45251 120.393599 36.965644 C 120.393599 36.513554 120.776136 36.131016 121.263002 36.131016 L 129.852708 36.131016 C 130.339574 36.131016 130.722112 36.513554 130.722112 36.965644 C 130.722112 37.45251 130.339574 37.835047 129.852708 37.835047 Z M 124.70584 48.16356 L 121.263002 48.16356 C 120.776136 48.16356 120.393599 47.781023 120.393599 47.294157 C 120.393599 46.842067 120.776136 46.424753 121.263002 46.424753 L 124.70584 46.424753 C 125.15793 46.424753 125.575243 46.842067 125.575243 47.294157 C 125.575243 47.781023 125.15793 48.16356 124.70584 48.16356 Z M 124.70584 48.16356 " transform="matrix(0.112326,0,0,0.112326,0.34,0.34)"/>
<path style="fill-rule:nonzero;fill:rgb(72.549021%,72.549021%,81.960785%);fill-opacity:1;stroke-width:6;stroke-linecap:butt;stroke-linejoin:round;stroke:rgb(0%,0%,0%);stroke-opacity:1;stroke-miterlimit:10;" d="M 129.435394 85.999998 C 129.435394 108.082846 111.525683 125.992557 89.442836 125.992557 C 67.359988 125.992557 49.450277 108.082846 49.450277 85.999998 C 49.450277 63.917151 67.359988 46.007439 89.442836 46.007439 C 111.525683 46.007439 129.435394 63.917151 129.435394 85.999998 Z M 129.435394 85.999998 " transform="matrix(0.112326,0,0,0.112326,0.34,0.34)"/>
<path style="fill-rule:nonzero;fill:rgb(0%,0%,0%);fill-opacity:1;stroke-width:6;stroke-linecap:butt;stroke-linejoin:round;stroke:rgb(0%,0%,0%);stroke-opacity:1;stroke-miterlimit:10;" d="M 89.442836 127.209722 C 66.734018 127.209722 48.233112 108.708816 48.233112 85.999998 C 48.233112 63.29118 66.734018 44.790275 89.442836 44.790275 C 112.151654 44.790275 130.617783 63.29118 130.617783 85.999998 C 130.617783 108.708816 112.151654 127.209722 89.442836 127.209722 Z M 89.442836 47.224604 C 68.055511 47.224604 50.667442 64.612673 50.667442 85.999998 C 50.667442 107.387323 68.055511 124.775392 89.442836 124.775392 C 110.830161 124.775392 128.21823 107.387323 128.21823 85.999998 C 128.21823 64.612673 110.830161 47.224604 89.442836 47.224604 Z M 89.442836 47.224604 " transform="matrix(0.112326,0,0,0.112326,0.34,0.34)"/>
<path style="fill-rule:nonzero;fill:rgb(100%,100%,100%);fill-opacity:1;stroke-width:6;stroke-linecap:butt;stroke-linejoin:round;stroke:rgb(0%,0%,0%);stroke-opacity:1;stroke-miterlimit:10;" d="M 122.967033 85.999998 C 122.967033 104.53568 107.978517 119.524195 89.442836 119.524195 C 70.907154 119.524195 55.883863 104.53568 55.883863 85.999998 C 55.883863 67.464317 70.907154 52.475801 89.442836 52.475801 C 107.978517 52.475801 122.967033 67.464317 122.967033 85.999998 Z M 122.967033 85.999998 " transform="matrix(0.112326,0,0,0.112326,0.34,0.34)"/>
<path style="fill-rule:nonzero;fill:rgb(0%,0%,0%);fill-opacity:1;stroke-width:6;stroke-linecap:butt;stroke-linejoin:round;stroke:rgb(0%,0%,0%);stroke-opacity:1;stroke-miterlimit:10;" d="M 121.471659 77.375516 C 121.089121 77.375516 120.776136 77.132083 120.637032 76.784322 C 120.497927 76.297456 120.358822 75.81059 120.184942 75.3585 C 119.524195 73.550141 118.724344 71.811334 117.750612 70.142079 C 117.507179 69.724766 117.646284 69.203124 118.063597 68.959691 C 118.480911 68.716258 119.002553 68.855362 119.245986 69.272676 C 120.254494 71.046259 121.123898 72.889394 121.784644 74.767306 C 121.958525 75.254172 122.132406 75.775814 122.306286 76.26268 C 122.445391 76.714769 122.167182 77.201635 121.715092 77.34074 C 121.64554 77.375516 121.541211 77.375516 121.471659 77.375516 Z M 121.471659 77.375516 " transform="matrix(0.112326,0,0,0.112326,0.34,0.34)"/>
<path style="fill-rule:nonzero;fill:rgb(0%,0%,0%);fill-opacity:1;stroke-width:6;stroke-linecap:butt;stroke-linejoin:round;stroke:rgb(0%,0%,0%);stroke-opacity:1;stroke-miterlimit:10;" d="M 89.442836 120.463151 C 70.455064 120.463151 54.979683 105.057322 54.979683 86.104327 C 54.979683 67.151331 70.420288 51.745502 89.442836 51.745502 C 99.319259 51.745502 108.708816 55.953415 115.24673 63.325956 C 115.733596 63.882374 116.220462 64.473569 116.672552 65.064763 C 116.985537 65.447301 116.915985 65.968943 116.533447 66.247152 C 116.15091 66.560137 115.629268 66.490585 115.316282 66.108047 C 114.898969 65.551629 114.446879 64.995211 113.960013 64.473569 C 107.735084 57.483565 98.797617 53.449533 89.442836 53.449533 C 71.39402 53.449533 56.71849 68.090287 56.71849 86.104327 C 56.71849 104.08359 71.39402 118.724344 89.442836 118.724344 C 107.491651 118.724344 122.167182 104.08359 122.167182 86.104327 C 122.167182 84.469848 122.062853 82.800593 121.81942 81.200891 C 121.749868 80.748801 122.062853 80.296712 122.549719 80.227159 C 123.001809 80.157607 123.453899 80.470592 123.523451 80.957458 C 123.766884 82.626713 123.905989 84.36552 123.905989 86.104327 C 123.905989 105.057322 108.430607 120.463151 89.442836 120.463151 Z M 89.442836 120.463151 " transform="matrix(0.112326,0,0,0.112326,0.34,0.34)"/>
<path style="fill-rule:nonzero;fill:rgb(99.215686%,98.823529%,93.725491%);fill-opacity:1;stroke-width:6;stroke-linecap:butt;stroke-linejoin:round;stroke:rgb(0%,0%,0%);stroke-opacity:1;stroke-miterlimit:10;" d="M 62.769538 127.279274 L 50.736994 127.279274 L 50.736994 126.40987 C 50.736994 126.40987 41.173556 126.40987 37.835047 126.40987 C 34.531314 126.40987 31.818775 123.732108 31.818775 120.393599 C 31.818775 117.089866 34.531314 114.377327 37.835047 114.377327 C 38.148032 114.377327 38.461018 114.412103 38.774003 114.481655 C 39.121764 112.464639 40.895347 110.934489 43.016692 110.934489 C 44.0252 110.934489 44.929379 111.317027 45.659678 111.908221 C 45.624902 111.595236 45.590126 111.28225 45.590126 110.934489 C 45.590126 107.14389 48.650426 104.048814 52.475801 104.048814 C 55.779534 104.048814 58.526849 106.378815 59.187596 109.508667 C 60.300432 108.291503 61.865358 107.491651 63.638941 107.491651 C 66.977451 107.491651 69.655213 110.20419 69.655213 113.507923 C 69.655213 113.855685 69.620437 114.133894 69.550885 114.446879 C 72.506857 114.829417 74.836858 117.333298 74.836858 120.393599 C 74.836858 123.732108 72.124319 126.40987 68.78581 126.40987 C 65.482077 126.40987 62.769538 126.40987 62.769538 126.40987 Z M 62.769538 127.279274 " transform="matrix(0.112326,0,0,0.112326,0.34,0.34)"/>
<path style="fill-rule:nonzero;fill:rgb(0%,0%,0%);fill-opacity:1;stroke-width:6;stroke-linecap:butt;stroke-linejoin:round;stroke:rgb(0%,0%,0%);stroke-opacity:1;stroke-miterlimit:10;" d="M 65.795062 118.689568 C 65.551629 118.689568 65.342972 118.480911 65.342972 118.237478 C 65.342972 116.15091 67.081779 114.446879 69.168347 114.446879 C 69.2379 114.446879 70.455064 114.446879 71.324468 114.655536 C 71.533125 114.725088 71.672229 114.968521 71.602677 115.211954 C 71.567901 115.420611 71.324468 115.559715 71.081035 115.490163 C 70.31596 115.281506 69.203124 115.281506 69.168347 115.281506 C 67.533869 115.281506 66.212376 116.637776 66.212376 118.237478 C 66.212376 118.480911 66.038495 118.689568 65.795062 118.689568 Z M 55.049235 126.40987 C 55.049235 126.896736 54.666698 127.279274 54.179832 127.279274 C 53.692966 127.279274 53.310428 126.896736 53.310428 126.40987 C 53.310428 125.957781 53.692966 125.575243 54.179832 125.575243 C 54.666698 125.575243 55.049235 125.957781 55.049235 126.40987 Z M 55.049235 126.40987 " transform="matrix(0.112326,0,0,0.112326,0.34,0.34)"/>
<path style="fill-rule:nonzero;fill:rgb(0%,0%,0%);fill-opacity:1;stroke-width:6;stroke-linecap:butt;stroke-linejoin:round;stroke:rgb(0%,0%,0%);stroke-opacity:1;stroke-miterlimit:10;" d="M 68.78581 127.279274 L 62.769538 127.279274 C 62.317448 127.279274 61.934911 126.896736 61.934911 126.40987 C 61.934911 125.957781 62.317448 125.575243 62.769538 125.575243 L 68.78581 125.575243 C 71.637453 125.575243 73.967454 123.245242 73.967454 120.393599 C 73.967454 117.820164 72.019991 115.629268 69.446556 115.316282 C 69.2379 115.281506 69.029243 115.142402 68.890138 114.968521 C 68.751034 114.79464 68.681481 114.551207 68.716258 114.307774 C 68.751034 114.064341 68.78581 113.786132 68.78581 113.507923 C 68.78581 110.691056 66.490585 108.361055 63.638941 108.361055 C 62.178344 108.361055 60.822074 108.987025 59.813566 110.065086 C 59.604909 110.308519 59.257148 110.412847 58.978939 110.343295 C 58.665954 110.238966 58.422521 109.995533 58.352968 109.682548 C 57.761774 106.935233 55.292668 104.918217 52.475801 104.918217 C 49.137292 104.918217 46.424753 107.630756 46.424753 110.934489 C 46.424753 111.177922 46.459529 111.421355 46.494305 111.664788 C 46.563858 112.012549 46.389977 112.395087 46.076992 112.603744 C 45.798783 112.777624 45.416245 112.777624 45.138036 112.568968 C 44.512066 112.082102 43.781767 111.803893 43.016692 111.803893 C 41.347437 111.803893 39.921615 112.986281 39.60863 114.62076 C 39.539078 115.072849 39.121764 115.385835 38.634898 115.316282 C 38.391465 115.281506 38.113256 115.24673 37.835047 115.24673 C 34.983404 115.24673 32.688179 117.541955 32.688179 120.393599 C 32.688179 123.245242 34.983404 125.575243 37.835047 125.575243 L 50.736994 125.575243 C 51.22386 125.575243 51.606398 125.957781 51.606398 126.40987 C 51.606398 126.896736 51.22386 127.279274 50.736994 127.279274 L 37.835047 127.279274 C 34.044448 127.279274 30.949372 124.184198 30.949372 120.393599 C 30.949372 116.603 34.044448 113.507923 37.835047 113.507923 C 37.939375 113.507923 38.043704 113.507923 38.148032 113.542699 C 38.843555 111.490907 40.791019 110.065086 43.016692 110.065086 C 43.607886 110.065086 44.19908 110.169414 44.755499 110.378071 C 45.033708 106.378815 48.372217 103.214186 52.475801 103.214186 C 55.605654 103.214186 58.422521 105.126874 59.604909 107.978517 C 60.787298 107.109114 62.178344 106.657024 63.638941 106.657024 C 67.42954 106.657024 70.524617 109.717324 70.524617 113.507923 C 70.524617 113.612252 70.524617 113.681804 70.524617 113.751356 C 73.515365 114.551207 75.671485 117.263746 75.671485 120.393599 C 75.671485 124.184198 72.611185 127.279274 68.78581 127.279274 Z M 68.78581 127.279274 " transform="matrix(0.112326,0,0,0.112326,0.34,0.34)"/>
<path style="fill-rule:nonzero;fill:rgb(0%,0%,0%);fill-opacity:1;stroke-width:6;stroke-linecap:butt;stroke-linejoin:round;stroke:rgb(0%,0%,0%);stroke-opacity:1;stroke-miterlimit:10;" d="M 60.196104 126.40987 C 60.196104 126.896736 59.813566 127.279274 59.3267 127.279274 C 59.083267 127.279274 57.900879 127.279274 57.62267 127.279274 C 57.135804 127.279274 56.753266 126.896736 56.753266 126.40987 C 56.753266 125.957781 57.135804 125.575243 57.62267 125.575243 C 57.900879 125.575243 59.083267 125.575243 59.3267 125.575243 C 59.813566 125.575243 60.196104 125.957781 60.196104 126.40987 Z M 60.196104 126.40987 " transform="matrix(0.112326,0,0,0.112326,0.34,0.34)"/>
<path style="fill-rule:nonzero;fill:rgb(99.215686%,85.882354%,53.725493%);fill-opacity:1;stroke-width:6;stroke-linecap:butt;stroke-linejoin:round;stroke:rgb(0%,0%,0%);stroke-opacity:1;stroke-miterlimit:10;" d="M 113.507923 82.55716 C 113.507923 91.11209 106.587472 98.032542 98.032542 98.032542 L 94.867913 98.032542 C 97.754333 99.354035 99.771349 102.240455 99.771349 105.61374 L 99.771349 115.177178 C 99.771349 116.255238 99.527916 117.22897 99.180154 118.167926 C 90.381792 120.358822 83.287459 119.385091 79.566413 118.098374 C 79.149099 117.124642 79.114323 116.32479 79.114323 115.177178 L 79.114323 109.473891 C 72.92417 110.238966 69.689989 107.387323 68.438048 104.883441 C 66.907898 101.823141 66.907898 101.823141 65.377748 100.327767 C 63.847598 98.797617 63.847598 97.267467 65.377748 97.267467 C 66.907898 97.267467 68.438048 97.267467 71.463572 101.823141 C 73.098051 104.292247 76.471336 104.53568 79.253427 104.257471 C 79.705517 101.47538 81.513876 99.180154 83.982982 98.032542 L 80.85313 98.032542 C 72.2982 98.032542 65.342972 91.11209 65.342972 82.55716 C 65.342972 78.001486 67.325212 73.932678 70.455064 71.115811 C 70.142079 68.577153 70.489841 65.586405 71.463572 62.630433 C 76.992978 62.630433 81.270443 66.386256 82.000742 67.081779 L 97.858661 67.081779 C 98.58896 66.386256 102.831649 62.630433 108.395831 62.630433 C 109.473891 65.934167 109.786877 69.2379 109.300011 71.950438 C 111.908221 74.732529 113.507923 78.453576 113.507923 82.55716 Z M 113.507923 82.55716 " transform="matrix(0.112326,0,0,0.112326,0.34,0.34)"/>
<path style="fill-rule:nonzero;fill:rgb(0%,0%,0%);fill-opacity:1;stroke-width:6;stroke-linecap:butt;stroke-linejoin:round;stroke:rgb(0%,0%,0%);stroke-opacity:1;stroke-miterlimit:10;" d="M 88.921194 120.324046 C 83.91343 120.324046 80.540144 119.350314 79.253427 118.933001 C 79.044771 118.828672 78.836114 118.654792 78.766561 118.446135 C 78.279696 117.333298 78.244919 116.394343 78.244919 115.177178 L 78.244919 110.412847 C 71.081035 110.934489 68.33372 106.657024 67.672973 105.265979 C 66.212376 102.344783 66.212376 102.344783 64.786554 100.918961 C 63.604165 99.736573 63.117299 98.449856 63.534613 97.5109 C 63.812822 96.815377 64.473569 96.398063 65.377748 96.398063 C 67.42954 96.398063 69.133571 96.780601 72.193871 101.371051 C 73.480588 103.318515 76.227903 103.596724 78.523128 103.457619 C 78.975218 101.684036 79.879398 100.11911 81.200891 98.901945 L 80.85313 98.901945 C 71.84611 98.901945 64.508345 91.56418 64.508345 82.55716 C 64.508345 78.140591 66.316704 73.863126 69.550885 70.76805 C 69.307452 68.159839 69.689989 65.238644 70.663721 62.352224 C 70.76805 62.004463 71.115811 61.76103 71.463572 61.76103 C 76.853874 61.76103 81.061787 65.099539 82.348504 66.212376 L 97.5109 66.212376 C 98.797617 65.099539 103.00553 61.76103 108.395831 61.76103 C 108.743592 61.76103 109.091354 62.004463 109.195682 62.352224 C 110.273742 65.551629 110.621504 68.855362 110.20419 71.672229 C 112.916729 74.697753 114.377327 78.523128 114.377327 82.55716 C 114.377327 91.56418 107.039562 98.901945 98.032542 98.901945 L 97.684781 98.901945 C 99.527916 100.605976 100.605976 103.040306 100.605976 105.61374 L 100.605976 115.177178 C 100.605976 116.290014 100.397319 117.368075 99.980006 118.480911 C 99.875677 118.724344 99.66702 118.933001 99.388811 119.002553 C 95.424332 119.976285 91.877165 120.324046 88.921194 120.324046 Z M 80.227159 117.437627 C 82.522384 118.13315 89.095074 119.698076 98.519408 117.437627 C 98.762841 116.672552 98.901945 115.942253 98.901945 115.177178 L 98.901945 105.61374 C 98.901945 102.692544 97.197915 100.049558 94.520152 98.832393 C 94.172391 98.658512 93.963734 98.241199 94.033286 97.858661 C 94.137614 97.476124 94.485376 97.163138 94.867913 97.163138 L 98.032542 97.163138 C 106.100606 97.163138 112.673296 90.625225 112.673296 82.55716 C 112.673296 78.836114 111.247474 75.254172 108.67404 72.541633 C 108.465383 72.332976 108.395831 72.054767 108.430607 71.811334 C 108.882697 69.342228 108.639264 66.421032 107.769861 63.499837 C 102.866425 63.778046 99.145378 67.047003 98.449856 67.70775 C 98.275975 67.846854 98.067318 67.951183 97.858661 67.951183 L 82.000742 67.951183 C 81.792085 67.951183 81.583429 67.846854 81.409548 67.70775 C 80.679249 67.047003 76.958202 63.778046 72.089543 63.499837 C 71.289692 66.108047 71.011483 68.716258 71.289692 71.011483 C 71.324468 71.289692 71.22014 71.567901 71.011483 71.741782 C 67.985959 74.523873 66.212376 78.453576 66.212376 82.55716 C 66.212376 90.625225 72.785066 97.163138 80.85313 97.163138 L 83.982982 97.163138 C 84.400296 97.163138 84.748057 97.476124 84.852386 97.858661 C 84.921938 98.241199 84.713281 98.658512 84.36552 98.832393 C 82.105071 99.875677 80.505368 101.927469 80.088055 104.396575 C 80.053279 104.779113 79.740293 105.092098 79.357756 105.126874 C 75.219395 105.544188 72.263424 104.570456 70.76805 102.310007 C 67.951183 98.13687 66.699242 98.13687 65.377748 98.13687 C 65.169091 98.13687 65.099539 98.171646 65.099539 98.171646 C 65.064763 98.275975 65.169091 98.901945 66.003719 99.701797 C 67.603421 101.336275 67.672973 101.440603 69.203124 104.500904 C 69.794318 105.683292 72.228648 109.473891 79.009994 108.604488 C 79.253427 108.569712 79.49686 108.639264 79.705517 108.813145 C 79.879398 108.987025 79.983726 109.230458 79.983726 109.473891 L 79.983726 115.177178 C 79.983726 116.081358 79.983726 116.742104 80.227159 117.437627 Z M 80.227159 117.437627 " transform="matrix(0.112326,0,0,0.112326,0.34,0.34)"/>
<path style="fill-rule:nonzero;fill:rgb(99.215686%,85.882354%,53.725493%);fill-opacity:1;stroke-width:6;stroke-linecap:butt;stroke-linejoin:round;stroke:rgb(0%,0%,0%);stroke-opacity:1;stroke-miterlimit:10;" d="M 108.534936 87.564924 C 107.074338 90.799105 103.840157 93.511644 98.171646 93.963734 " transform="matrix(0.112326,0,0,0.112326,0.34,0.34)"/>
<path style="fill-rule:nonzero;fill:rgb(0%,0%,0%);fill-opacity:1;stroke-width:6;stroke-linecap:butt;stroke-linejoin:round;stroke:rgb(0%,0%,0%);stroke-opacity:1;stroke-miterlimit:10;" d="M 98.171646 94.381047 C 97.96299 94.381047 97.789109 94.207167 97.754333 93.99851 C 97.719557 93.755077 97.928213 93.54642 98.13687 93.511644 C 104.327023 93.024778 107.004785 89.894926 108.117622 87.391044 C 108.22195 87.147611 108.500159 87.078058 108.708816 87.182387 C 108.917473 87.251939 109.021801 87.530148 108.917473 87.738805 C 107.178666 91.598956 103.353291 93.963734 98.206423 94.381047 C 98.206423 94.381047 98.206423 94.381047 98.171646 94.381047 Z M 98.171646 94.381047 " transform="matrix(0.112326,0,0,0.112326,0.34,0.34)"/>
<path style="fill-rule:nonzero;fill:rgb(99.215686%,85.882354%,53.725493%);fill-opacity:1;stroke-width:6;stroke-linecap:butt;stroke-linejoin:round;stroke:rgb(0%,0%,0%);stroke-opacity:1;stroke-miterlimit:10;" d="M 109.369563 81.131339 C 109.543444 82.348504 109.543444 83.635221 109.334787 84.921938 " transform="matrix(0.112326,0,0,0.112326,0.34,0.34)"/>
<path style="fill-rule:nonzero;fill:rgb(0%,0%,0%);fill-opacity:1;stroke-width:6;stroke-linecap:butt;stroke-linejoin:round;stroke:rgb(0%,0%,0%);stroke-opacity:1;stroke-miterlimit:10;" d="M 109.334787 85.374028 C 109.300011 85.374028 109.265234 85.374028 109.265234 85.374028 C 109.021801 85.304475 108.847921 85.095819 108.917473 84.852386 C 109.12613 83.669997 109.12613 82.38328 108.952249 81.200891 C 108.917473 80.957458 109.091354 80.748801 109.300011 80.714025 C 109.543444 80.679249 109.7521 80.818354 109.786877 81.061787 C 109.995533 82.38328 109.995533 83.704773 109.7521 85.026266 C 109.717324 85.234923 109.543444 85.374028 109.334787 85.374028 Z M 109.334787 85.374028 " transform="matrix(0.112326,0,0,0.112326,0.34,0.34)"/>
<path style="fill-rule:nonzero;fill:rgb(99.215686%,85.882354%,53.725493%);fill-opacity:1;stroke-width:6;stroke-linecap:butt;stroke-linejoin:round;stroke:rgb(0%,0%,0%);stroke-opacity:1;stroke-miterlimit:10;" d="M 106.309263 75.3585 C 107.352547 76.088799 108.187174 77.271188 108.743592 78.731785 " transform="matrix(0.112326,0,0,0.112326,0.34,0.34)"/>
<path style="fill-rule:nonzero;fill:rgb(0%,0%,0%);fill-opacity:1;stroke-width:6;stroke-linecap:butt;stroke-linejoin:round;stroke:rgb(0%,0%,0%);stroke-opacity:1;stroke-miterlimit:10;" d="M 108.743592 79.149099 C 108.569712 79.149099 108.395831 79.044771 108.361055 78.87089 C 107.804637 77.479844 107.004785 76.401784 106.06583 75.706261 C 105.891949 75.567157 105.822397 75.323724 105.961501 75.115067 C 106.100606 74.941186 106.378815 74.871634 106.587472 75.010739 C 107.665532 75.775814 108.534936 77.027755 109.160906 78.557905 C 109.230458 78.766561 109.12613 79.044771 108.917473 79.114323 C 108.847921 79.149099 108.813145 79.149099 108.743592 79.149099 Z M 108.743592 79.149099 " transform="matrix(0.112326,0,0,0.112326,0.34,0.34)"/>
<path style=" stroke:none;fill-rule:nonzero;fill:rgb(99.215686%,85.882354%,53.725493%);fill-opacity:1;" d="M 17.191406 11.296875 C 17.410156 10.878906 17.535156 10.40625 17.535156 9.902344 C 17.535156 8.625 16.730469 7.535156 15.601562 7.105469 C 15.601562 7.105469 15.601562 7.105469 15.601562 7.101562 C 15.601562 4.859375 13.785156 3.042969 11.546875 3.042969 C 9.65625 3.042969 8.070312 4.339844 7.621094 6.089844 C 7.335938 5.996094 7.03125 5.941406 6.714844 5.941406 C 5.230469 5.941406 4.007812 7.0625 3.839844 8.503906 C 2.832031 8.714844 2.078125 9.609375 2.078125 10.675781 C 2.078125 11.902344 3.074219 12.898438 4.300781 12.898438 C 4.335938 12.898438 4.367188 12.894531 4.402344 12.894531 C 4.402344 12.925781 4.398438 12.960938 4.398438 12.996094 C 4.398438 15.183594 6.171875 16.957031 8.359375 16.957031 C 9.601562 16.957031 10.710938 16.382812 11.4375 15.484375 C 11.855469 15.914062 12.441406 16.183594 13.089844 16.183594 C 13.988281 16.183594 14.765625 15.671875 15.152344 14.921875 C 15.355469 14.988281 15.570312 15.023438 15.796875 15.023438 C 16.96875 15.023438 17.921875 14.070312 17.921875 12.898438 C 17.921875 12.257812 17.636719 11.6875 17.191406 11.296875 Z M 17.191406 11.296875 "/>
<path style=" stroke:none;fill-rule:nonzero;fill:rgb(99.215686%,98.823529%,93.725491%);fill-opacity:1;" d="M 15.3125 12.027344 L 15.3125 12.125 L 15.894531 12.125 L 15.894531 12.027344 C 15.894531 12.027344 16.710938 12.027344 16.957031 12.027344 C 17.433594 12.027344 17.824219 11.640625 17.824219 11.160156 C 17.824219 10.707031 17.480469 10.34375 17.042969 10.296875 C 17.046875 10.261719 17.050781 10.230469 17.050781 10.191406 C 17.050781 9.714844 16.664062 9.324219 16.183594 9.324219 C 15.90625 9.324219 15.660156 9.457031 15.5 9.660156 C 15.472656 9.148438 15.054688 8.746094 14.539062 8.746094 C 14.007812 8.746094 13.574219 9.175781 13.574219 9.710938 C 13.574219 9.796875 13.589844 9.878906 13.609375 9.957031 C 13.484375 9.808594 13.300781 9.710938 13.089844 9.710938 C 12.746094 9.710938 12.464844 9.96875 12.421875 10.300781 C 12.390625 10.296875 12.355469 10.289062 12.320312 10.289062 C 11.839844 10.289062 11.449219 10.679688 11.449219 11.160156 C 11.449219 11.640625 11.839844 12.027344 12.320312 12.027344 C 12.796875 12.027344 14.152344 12.027344 14.152344 12.027344 Z M 15.3125 12.027344 "/>
<path style=" stroke:none;fill-rule:nonzero;fill:rgb(0%,0%,0%);fill-opacity:1;" d="M 14.539062 8.648438 C 13.953125 8.648438 13.476562 9.125 13.476562 9.710938 C 13.476562 9.714844 13.476562 9.714844 13.476562 9.71875 C 13.359375 9.652344 13.226562 9.613281 13.089844 9.613281 C 12.738281 9.613281 12.433594 9.855469 12.347656 10.195312 C 12.335938 10.195312 12.328125 10.191406 12.320312 10.191406 C 11.785156 10.191406 11.351562 10.625 11.351562 11.160156 C 11.351562 11.691406 11.785156 12.125 12.320312 12.125 L 15.3125 12.125 C 15.367188 12.125 15.410156 12.082031 15.410156 12.027344 C 15.410156 11.976562 15.367188 11.933594 15.3125 11.933594 L 12.320312 11.933594 C 11.890625 11.933594 11.546875 11.585938 11.546875 11.160156 C 11.546875 10.734375 11.890625 10.386719 12.320312 10.386719 C 12.339844 10.386719 12.363281 10.390625 12.382812 10.394531 L 12.410156 10.394531 C 12.414062 10.398438 12.417969 10.398438 12.425781 10.398438 C 12.472656 10.398438 12.511719 10.359375 12.519531 10.3125 C 12.554688 10.023438 12.800781 9.808594 13.089844 9.808594 C 13.261719 9.808594 13.425781 9.882812 13.535156 10.019531 C 13.554688 10.042969 13.582031 10.054688 13.609375 10.054688 C 13.625 10.054688 13.640625 10.050781 13.65625 10.042969 C 13.695312 10.023438 13.714844 9.976562 13.703125 9.933594 C 13.679688 9.847656 13.671875 9.777344 13.671875 9.710938 C 13.671875 9.230469 14.0625 8.839844 14.539062 8.839844 C 15 8.839844 15.378906 9.203125 15.40625 9.664062 C 15.40625 9.703125 15.433594 9.738281 15.472656 9.75 C 15.480469 9.753906 15.492188 9.757812 15.5 9.757812 C 15.53125 9.757812 15.558594 9.742188 15.578125 9.71875 C 15.726562 9.527344 15.945312 9.421875 16.183594 9.421875 C 16.609375 9.421875 16.957031 9.765625 16.957031 10.191406 C 16.957031 10.214844 16.953125 10.238281 16.949219 10.257812 L 16.945312 10.285156 C 16.941406 10.3125 16.949219 10.339844 16.964844 10.359375 C 16.980469 10.378906 17.003906 10.390625 17.03125 10.394531 C 17.429688 10.433594 17.726562 10.761719 17.726562 11.160156 C 17.726562 11.585938 17.382812 11.933594 16.957031 11.933594 L 15.894531 11.933594 C 15.839844 11.933594 15.796875 11.976562 15.796875 12.027344 C 15.796875 12.082031 15.839844 12.125 15.894531 12.125 L 16.957031 12.125 C 17.488281 12.125 17.921875 11.691406 17.921875 11.160156 C 17.921875 10.695312 17.59375 10.304688 17.148438 10.21875 C 17.148438 10.210938 17.148438 10.199219 17.148438 10.191406 C 17.148438 9.660156 16.714844 9.226562 16.183594 9.226562 C 15.957031 9.226562 15.738281 9.308594 15.566406 9.453125 C 15.453125 8.988281 15.035156 8.648438 14.539062 8.648438 Z M 14.539062 8.648438 "/>
<path style=" stroke:none;fill-rule:nonzero;fill:rgb(0%,0%,0%);fill-opacity:1;" d="M 14.25 10 C 13.980469 10 13.746094 10.191406 13.6875 10.453125 C 13.617188 10.410156 13.535156 10.386719 13.453125 10.386719 C 13.222656 10.386719 13.027344 10.558594 13 10.785156 C 12.960938 10.777344 12.921875 10.773438 12.886719 10.773438 C 12.589844 10.773438 12.34375 11.003906 12.320312 11.300781 C 12.320312 11.328125 12.339844 11.351562 12.367188 11.351562 C 12.367188 11.351562 12.371094 11.351562 12.371094 11.351562 C 12.394531 11.351562 12.417969 11.332031 12.417969 11.308594 C 12.4375 11.0625 12.640625 10.871094 12.886719 10.871094 C 12.929688 10.871094 12.976562 10.878906 13.027344 10.894531 C 13.03125 10.894531 13.035156 10.894531 13.042969 10.894531 C 13.050781 10.894531 13.0625 10.890625 13.070312 10.886719 C 13.082031 10.875 13.089844 10.859375 13.089844 10.84375 C 13.089844 10.644531 13.253906 10.484375 13.453125 10.484375 C 13.539062 10.484375 13.625 10.515625 13.691406 10.574219 C 13.699219 10.582031 13.710938 10.585938 13.722656 10.585938 C 13.730469 10.585938 13.734375 10.585938 13.742188 10.582031 C 13.757812 10.574219 13.769531 10.558594 13.769531 10.542969 C 13.792969 10.292969 14 10.097656 14.25 10.097656 C 14.289062 10.097656 14.332031 10.101562 14.382812 10.117188 C 14.386719 10.117188 14.390625 10.121094 14.394531 10.121094 C 14.417969 10.121094 14.4375 10.105469 14.441406 10.085938 C 14.449219 10.058594 14.433594 10.03125 14.410156 10.023438 C 14.351562 10.007812 14.300781 10 14.25 10 Z M 16.933594 10.289062 C 16.675781 10.289062 16.449219 10.464844 16.378906 10.710938 C 16.371094 10.738281 16.386719 10.765625 16.410156 10.769531 C 16.414062 10.773438 16.417969 10.773438 16.425781 10.773438 C 16.445312 10.773438 16.464844 10.757812 16.46875 10.738281 C 16.527344 10.53125 16.71875 10.386719 16.933594 10.386719 C 16.957031 10.386719 16.976562 10.390625 17 10.390625 C 17 10.390625 17.003906 10.394531 17.003906 10.394531 C 17.027344 10.394531 17.050781 10.375 17.054688 10.351562 C 17.054688 10.324219 17.039062 10.300781 17.011719 10.296875 C 16.984375 10.292969 16.960938 10.289062 16.933594 10.289062 Z M 16.933594 10.289062 "/>
<path style=" stroke:none;fill-rule:nonzero;fill:rgb(100%,100%,100%);fill-opacity:1;" d="M 3.335938 10.191406 L 1.402344 10.191406 C 1.347656 10.191406 1.304688 10.148438 1.304688 10.097656 C 1.304688 10.042969 1.347656 10 1.402344 10 L 3.335938 10 C 3.386719 10 3.429688 10.042969 3.429688 10.097656 C 3.429688 10.148438 3.386719 10.191406 3.335938 10.191406 Z M 3.914062 10.191406 L 3.722656 10.191406 C 3.667969 10.191406 3.625 10.148438 3.625 10.097656 C 3.625 10.042969 3.667969 10 3.722656 10 L 3.914062 10 C 3.96875 10 4.011719 10.042969 4.011719 10.097656 C 4.011719 10.148438 3.96875 10.191406 3.914062 10.191406 Z M 4.878906 10.578125 L 3.140625 10.578125 C 3.089844 10.578125 3.042969 10.535156 3.042969 10.484375 C 3.042969 10.429688 3.089844 10.386719 3.140625 10.386719 L 4.878906 10.386719 C 4.933594 10.386719 4.976562 10.429688 4.976562 10.484375 C 4.976562 10.535156 4.933594 10.578125 4.878906 10.578125 Z M 2.753906 10.578125 L 2.5625 10.578125 C 2.507812 10.578125 2.464844 10.535156 2.464844 10.484375 C 2.464844 10.429688 2.507812 10.386719 2.5625 10.386719 L 2.753906 10.386719 C 2.808594 10.386719 2.851562 10.429688 2.851562 10.484375 C 2.851562 10.535156 2.808594 10.578125 2.753906 10.578125 Z M 2.175781 10.578125 L 1.789062 10.578125 C 1.734375 10.578125 1.691406 10.535156 1.691406 10.484375 C 1.691406 10.429688 1.734375 10.386719 1.789062 10.386719 L 2.175781 10.386719 C 2.230469 10.386719 2.273438 10.429688 2.273438 10.484375 C 2.273438 10.535156 2.230469 10.578125 2.175781 10.578125 Z M 3.335938 10.964844 L 2.949219 10.964844 C 2.894531 10.964844 2.851562 10.921875 2.851562 10.871094 C 2.851562 10.816406 2.894531 10.773438 2.949219 10.773438 L 3.335938 10.773438 C 3.386719 10.773438 3.429688 10.816406 3.429688 10.871094 C 3.429688 10.921875 3.386719 10.964844 3.335938 10.964844 Z M 3.914062 9.226562 C 3.878906 9.226562 3.753906 9.226562 3.722656 9.226562 C 3.667969 9.226562 3.625 9.269531 3.625 9.324219 C 3.625 9.378906 3.667969 9.421875 3.722656 9.421875 C 3.753906 9.421875 3.878906 9.421875 3.914062 9.421875 C 3.96875 9.421875 4.011719 9.378906 4.011719 9.324219 C 4.011719 9.269531 3.96875 9.226562 3.914062 9.226562 Z M 3.914062 9.613281 C 3.878906 9.613281 2.980469 9.613281 2.949219 9.613281 C 2.894531 9.613281 2.851562 9.65625 2.851562 9.710938 C 2.851562 9.761719 2.894531 9.808594 2.949219 9.808594 C 2.980469 9.808594 3.878906 9.808594 3.914062 9.808594 C 3.96875 9.808594 4.011719 9.761719 4.011719 9.710938 C 4.011719 9.65625 3.96875 9.613281 3.914062 9.613281 Z M 4.878906 10 C 4.847656 10 4.335938 10 4.300781 10 C 4.246094 10 4.203125 10.042969 4.203125 10.097656 C 4.203125 10.148438 4.246094 10.191406 4.300781 10.191406 C 4.335938 10.191406 4.847656 10.191406 4.878906 10.191406 C 4.933594 10.191406 4.976562 10.148438 4.976562 10.097656 C 4.976562 10.042969 4.933594 10 4.878906 10 Z M 4.878906 10 "/>
<path style=" stroke:none;fill-rule:nonzero;fill:rgb(100%,100%,100%);fill-opacity:1;" d="M 14.347656 4.976562 L 12.414062 4.976562 C 12.363281 4.976562 12.320312 4.933594 12.320312 4.878906 C 12.320312 4.828125 12.363281 4.785156 12.414062 4.785156 L 14.347656 4.785156 C 14.398438 4.785156 14.445312 4.828125 14.445312 4.878906 C 14.445312 4.933594 14.398438 4.976562 14.347656 4.976562 Z M 15.121094 4.976562 L 14.734375 4.976562 C 14.679688 4.976562 14.636719 4.933594 14.636719 4.878906 C 14.636719 4.828125 14.679688 4.785156 14.734375 4.785156 L 15.121094 4.785156 C 15.171875 4.785156 15.214844 4.828125 15.214844 4.878906 C 15.214844 4.933594 15.171875 4.976562 15.121094 4.976562 Z M 16.085938 5.363281 L 14.152344 5.363281 C 14.101562 5.363281 14.058594 5.320312 14.058594 5.265625 C 14.058594 5.214844 14.101562 5.171875 14.152344 5.171875 L 16.085938 5.171875 C 16.140625 5.171875 16.183594 5.214844 16.183594 5.265625 C 16.183594 5.320312 16.140625 5.363281 16.085938 5.363281 Z M 13.765625 5.363281 L 13.574219 5.363281 C 13.519531 5.363281 13.476562 5.320312 13.476562 5.265625 C 13.476562 5.214844 13.519531 5.171875 13.574219 5.171875 L 13.765625 5.171875 C 13.820312 5.171875 13.863281 5.214844 13.863281 5.265625 C 13.863281 5.320312 13.820312 5.363281 13.765625 5.363281 Z M 13.183594 5.363281 L 12.800781 5.363281 C 12.75 5.363281 12.703125 5.320312 12.703125 5.265625 C 12.703125 5.214844 12.75 5.171875 12.800781 5.171875 L 13.183594 5.171875 C 13.234375 5.171875 13.277344 5.214844 13.277344 5.265625 C 13.277344 5.320312 13.234375 5.363281 13.183594 5.363281 Z M 14.925781 4.589844 L 13.960938 4.589844 C 13.90625 4.589844 13.863281 4.546875 13.863281 4.492188 C 13.863281 4.441406 13.90625 4.398438 13.960938 4.398438 L 14.925781 4.398438 C 14.980469 4.398438 15.023438 4.441406 15.023438 4.492188 C 15.023438 4.546875 14.980469 4.589844 14.925781 4.589844 Z M 14.347656 5.75 L 13.960938 5.75 C 13.90625 5.75 13.863281 5.707031 13.863281 5.652344 C 13.863281 5.601562 13.90625 5.554688 13.960938 5.554688 L 14.347656 5.554688 C 14.398438 5.554688 14.445312 5.601562 14.445312 5.652344 C 14.445312 5.707031 14.398438 5.75 14.347656 5.75 Z M 14.347656 5.75 "/>
<path style=" stroke:none;fill-rule:nonzero;fill:rgb(100%,100%,100%);fill-opacity:1;" d="M 10.386719 5.507812 C 7.90625 5.507812 5.894531 7.519531 5.894531 10 C 5.894531 12.480469 7.90625 14.492188 10.386719 14.492188 C 12.867188 14.492188 14.878906 12.480469 14.878906 10 C 14.878906 7.519531 12.867188 5.507812 10.386719 5.507812 Z M 10.386719 5.507812 "/>
<path style=" stroke:none;fill-rule:nonzero;fill:rgb(0%,0%,0%);fill-opacity:1;" d="M 10.386719 14.628906 C 7.835938 14.628906 5.757812 12.550781 5.757812 10 C 5.757812 7.449219 7.835938 5.371094 10.386719 5.371094 C 12.9375 5.371094 15.011719 7.449219 15.011719 10 C 15.011719 12.550781 12.9375 14.628906 10.386719 14.628906 Z M 10.386719 5.644531 C 7.984375 5.644531 6.03125 7.597656 6.03125 10 C 6.03125 12.402344 7.984375 14.355469 10.386719 14.355469 C 12.789062 14.355469 14.742188 12.402344 14.742188 10 C 14.742188 7.597656 12.789062 5.644531 10.386719 5.644531 Z M 10.386719 5.644531 "/>
<path style=" stroke:none;fill-rule:nonzero;fill:rgb(100%,100%,100%);fill-opacity:1;" d="M 10.386719 6.234375 C 8.304688 6.234375 6.617188 7.917969 6.617188 10 C 6.617188 12.082031 8.304688 13.765625 10.386719 13.765625 C 12.46875 13.765625 14.152344 12.082031 14.152344 10 C 14.152344 7.917969 12.46875 6.234375 10.386719 6.234375 Z M 10.386719 6.234375 "/>
<path style=" stroke:none;fill-rule:nonzero;fill:rgb(0%,0%,0%);fill-opacity:1;" d="M 13.984375 9.03125 C 13.941406 9.03125 13.90625 9.003906 13.890625 8.964844 C 13.875 8.910156 13.859375 8.855469 13.839844 8.804688 C 13.765625 8.601562 13.675781 8.40625 13.566406 8.21875 C 13.539062 8.171875 13.554688 8.113281 13.601562 8.085938 C 13.648438 8.058594 13.707031 8.074219 13.734375 8.121094 C 13.847656 8.320312 13.945312 8.527344 14.019531 8.738281 C 14.039062 8.792969 14.058594 8.851562 14.078125 8.90625 C 14.09375 8.957031 14.0625 9.011719 14.011719 9.027344 C 14.003906 9.03125 13.992188 9.03125 13.984375 9.03125 Z M 13.984375 9.03125 "/>
<path style=" stroke:none;fill-rule:nonzero;fill:rgb(0%,0%,0%);fill-opacity:1;" d="M 10.386719 13.871094 C 8.253906 13.871094 6.515625 12.140625 6.515625 10.011719 C 6.515625 7.882812 8.25 6.152344 10.386719 6.152344 C 11.496094 6.152344 12.550781 6.625 13.285156 7.453125 C 13.339844 7.515625 13.394531 7.582031 13.445312 7.648438 C 13.480469 7.691406 13.472656 7.75 13.429688 7.78125 C 13.386719 7.816406 13.328125 7.808594 13.292969 7.765625 C 13.246094 7.703125 13.195312 7.640625 13.140625 7.582031 C 12.441406 6.796875 11.4375 6.34375 10.386719 6.34375 C 8.359375 6.34375 6.710938 7.988281 6.710938 10.011719 C 6.710938 12.03125 8.359375 13.675781 10.386719 13.675781 C 12.414062 13.675781 14.0625 12.03125 14.0625 10.011719 C 14.0625 9.828125 14.050781 9.640625 14.023438 9.460938 C 14.015625 9.410156 14.050781 9.359375 14.105469 9.351562 C 14.15625 9.34375 14.207031 9.378906 14.214844 9.433594 C 14.242188 9.621094 14.257812 9.816406 14.257812 10.011719 C 14.257812 12.140625 12.519531 13.871094 10.386719 13.871094 Z M 10.386719 13.871094 "/>
<path style=" stroke:none;fill-rule:nonzero;fill:rgb(99.215686%,98.823529%,93.725491%);fill-opacity:1;" d="M 7.390625 14.539062 C 7.390625 14.539062 7.695312 14.539062 8.066406 14.539062 C 8.441406 14.539062 8.746094 14.238281 8.746094 13.863281 C 8.746094 13.519531 8.484375 13.238281 8.152344 13.195312 C 8.160156 13.160156 8.164062 13.128906 8.164062 13.089844 C 8.164062 12.71875 7.863281 12.414062 7.488281 12.414062 C 7.289062 12.414062 7.113281 12.503906 6.988281 12.640625 C 6.914062 12.289062 6.605469 12.027344 6.234375 12.027344 C 5.804688 12.027344 5.460938 12.375 5.460938 12.800781 C 5.460938 12.839844 5.464844 12.875 5.46875 12.910156 C 5.386719 12.84375 5.285156 12.800781 5.171875 12.800781 C 4.933594 12.800781 4.734375 12.972656 4.695312 13.199219 C 4.660156 13.191406 4.625 13.1875 4.589844 13.1875 C 4.21875 13.1875 3.914062 13.492188 3.914062 13.863281 C 3.914062 14.238281 4.21875 14.539062 4.589844 14.539062 C 4.964844 14.539062 6.039062 14.539062 6.039062 14.539062 L 6.039062 14.636719 L 7.390625 14.636719 Z M 7.390625 14.539062 "/>
<path style=" stroke:none;fill-rule:nonzero;fill:rgb(0%,0%,0%);fill-opacity:1;" d="M 7.730469 13.671875 C 7.703125 13.671875 7.679688 13.648438 7.679688 13.621094 C 7.679688 13.386719 7.875 13.195312 8.109375 13.195312 C 8.117188 13.195312 8.253906 13.195312 8.351562 13.21875 C 8.375 13.226562 8.390625 13.253906 8.382812 13.28125 C 8.378906 13.304688 8.351562 13.320312 8.324219 13.3125 C 8.238281 13.289062 8.113281 13.289062 8.109375 13.289062 C 7.925781 13.289062 7.777344 13.441406 7.777344 13.621094 C 7.777344 13.648438 7.757812 13.671875 7.730469 13.671875 Z M 6.425781 14.445312 C 6.371094 14.445312 6.328125 14.488281 6.328125 14.539062 C 6.328125 14.59375 6.371094 14.636719 6.425781 14.636719 C 6.480469 14.636719 6.523438 14.59375 6.523438 14.539062 C 6.523438 14.488281 6.480469 14.445312 6.425781 14.445312 Z M 6.425781 14.445312 "/>
<path style=" stroke:none;fill-rule:nonzero;fill:rgb(0%,0%,0%);fill-opacity:1;" d="M 8.066406 14.636719 L 7.390625 14.636719 C 7.339844 14.636719 7.296875 14.59375 7.296875 14.539062 C 7.296875 14.488281 7.339844 14.445312 7.390625 14.445312 L 8.066406 14.445312 C 8.386719 14.445312 8.648438 14.183594 8.648438 13.863281 C 8.648438 13.574219 8.429688 13.328125 8.140625 13.292969 C 8.117188 13.289062 8.09375 13.273438 8.078125 13.253906 C 8.0625 13.234375 8.054688 13.207031 8.058594 13.179688 C 8.0625 13.152344 8.066406 13.121094 8.066406 13.089844 C 8.066406 12.773438 7.808594 12.511719 7.488281 12.511719 C 7.324219 12.511719 7.171875 12.582031 7.058594 12.703125 C 7.035156 12.730469 6.996094 12.742188 6.964844 12.734375 C 6.929688 12.722656 6.902344 12.695312 6.894531 12.660156 C 6.828125 12.351562 6.550781 12.125 6.234375 12.125 C 5.859375 12.125 5.554688 12.429688 5.554688 12.800781 C 5.554688 12.828125 5.558594 12.855469 5.5625 12.882812 C 5.570312 12.921875 5.550781 12.964844 5.515625 12.988281 C 5.484375 13.007812 5.441406 13.007812 5.410156 12.984375 C 5.339844 12.929688 5.257812 12.898438 5.171875 12.898438 C 4.984375 12.898438 4.824219 13.03125 4.789062 13.214844 C 4.78125 13.265625 4.734375 13.300781 4.679688 13.292969 C 4.652344 13.289062 4.621094 13.285156 4.589844 13.285156 C 4.269531 13.285156 4.011719 13.542969 4.011719 13.863281 C 4.011719 14.183594 4.269531 14.445312 4.589844 14.445312 L 6.039062 14.445312 C 6.09375 14.445312 6.136719 14.488281 6.136719 14.539062 C 6.136719 14.59375 6.09375 14.636719 6.039062 14.636719 L 4.589844 14.636719 C 4.164062 14.636719 3.816406 14.289062 3.816406 13.863281 C 3.816406 13.4375 4.164062 13.089844 4.589844 13.089844 C 4.601562 13.089844 4.613281 13.089844 4.625 13.09375 C 4.703125 12.863281 4.921875 12.703125 5.171875 12.703125 C 5.238281 12.703125 5.304688 12.714844 5.367188 12.738281 C 5.398438 12.289062 5.773438 11.933594 6.234375 11.933594 C 6.585938 11.933594 6.902344 12.148438 7.035156 12.46875 C 7.167969 12.371094 7.324219 12.320312 7.488281 12.320312 C 7.914062 12.320312 8.261719 12.664062 8.261719 13.089844 C 8.261719 13.101562 8.261719 13.109375 8.261719 13.117188 C 8.597656 13.207031 8.839844 13.511719 8.839844 13.863281 C 8.839844 14.289062 8.496094 14.636719 8.066406 14.636719 Z M 8.066406 14.636719 "/>
<path style=" stroke:none;fill-rule:nonzero;fill:rgb(0%,0%,0%);fill-opacity:1;" d="M 7.003906 14.445312 C 6.976562 14.445312 6.84375 14.445312 6.8125 14.445312 C 6.757812 14.445312 6.714844 14.488281 6.714844 14.539062 C 6.714844 14.59375 6.757812 14.636719 6.8125 14.636719 C 6.84375 14.636719 6.976562 14.636719 7.003906 14.636719 C 7.058594 14.636719 7.101562 14.59375 7.101562 14.539062 C 7.101562 14.488281 7.058594 14.445312 7.003906 14.445312 Z M 7.003906 14.445312 "/>
<path style=" stroke:none;fill-rule:nonzero;fill:rgb(99.215686%,98.823529%,93.725491%);fill-opacity:1;" d="M 12.617188 8.421875 C 12.671875 8.117188 12.636719 7.746094 12.515625 7.375 C 11.890625 7.375 11.414062 7.796875 11.332031 7.875 L 9.550781 7.875 C 9.46875 7.796875 8.988281 7.375 8.367188 7.375 C 8.257812 7.707031 8.21875 8.042969 8.253906 8.328125 C 7.902344 8.644531 7.679688 9.101562 7.679688 9.613281 C 7.679688 10.574219 8.460938 11.351562 9.421875 11.351562 L 9.773438 11.351562 C 9.496094 11.480469 9.292969 11.738281 9.242188 12.050781 C 8.929688 12.082031 8.550781 12.054688 8.367188 11.777344 C 8.027344 11.265625 7.855469 11.265625 7.683594 11.265625 C 7.511719 11.265625 7.511719 11.4375 7.683594 11.609375 C 7.855469 11.777344 7.855469 11.777344 8.027344 12.121094 C 8.167969 12.402344 8.53125 12.722656 9.226562 12.636719 L 9.226562 13.277344 C 9.226562 13.40625 9.230469 13.496094 9.277344 13.605469 C 9.695312 13.75 10.492188 13.859375 11.480469 13.613281 C 11.519531 13.507812 11.546875 13.398438 11.546875 13.277344 L 11.546875 12.203125 C 11.546875 11.824219 11.320312 11.5 10.996094 11.351562 L 11.351562 11.351562 C 12.3125 11.351562 13.089844 10.574219 13.089844 9.613281 C 13.089844 9.152344 12.910156 8.734375 12.617188 8.421875 Z M 12.617188 8.421875 "/>
<path style=" stroke:none;fill-rule:nonzero;fill:rgb(0%,0%,0%);fill-opacity:1;" d="M 10.328125 13.855469 C 9.765625 13.855469 9.386719 13.746094 9.242188 13.699219 C 9.21875 13.6875 9.195312 13.667969 9.1875 13.644531 C 9.132812 13.519531 9.128906 13.414062 9.128906 13.277344 L 9.128906 12.742188 C 8.324219 12.800781 8.015625 12.320312 7.941406 12.164062 C 7.777344 11.835938 7.777344 11.835938 7.617188 11.675781 C 7.484375 11.542969 7.429688 11.398438 7.476562 11.292969 C 7.507812 11.214844 7.582031 11.167969 7.683594 11.167969 C 7.914062 11.167969 8.105469 11.210938 8.449219 11.726562 C 8.59375 11.945312 8.902344 11.976562 9.160156 11.960938 C 9.210938 11.761719 9.3125 11.585938 9.460938 11.449219 L 9.421875 11.449219 C 8.410156 11.449219 7.585938 10.625 7.585938 9.613281 C 7.585938 9.117188 7.789062 8.636719 8.152344 8.289062 C 8.125 7.996094 8.167969 7.667969 8.277344 7.34375 C 8.289062 7.304688 8.328125 7.277344 8.367188 7.277344 C 8.972656 7.277344 9.445312 7.652344 9.589844 7.777344 L 11.292969 7.777344 C 11.4375 7.652344 11.910156 7.277344 12.515625 7.277344 C 12.554688 7.277344 12.59375 7.304688 12.605469 7.34375 C 12.726562 7.703125 12.765625 8.074219 12.71875 8.390625 C 13.023438 8.730469 13.1875 9.160156 13.1875 9.613281 C 13.1875 10.625 12.363281 11.449219 11.351562 11.449219 L 11.3125 11.449219 C 11.519531 11.640625 11.640625 11.914062 11.640625 12.203125 L 11.640625 13.277344 C 11.640625 13.402344 11.617188 13.523438 11.570312 13.648438 C 11.558594 13.675781 11.535156 13.699219 11.503906 13.707031 C 11.058594 13.816406 10.660156 13.855469 10.328125 13.855469 Z M 9.351562 13.53125 C 9.609375 13.609375 10.347656 13.785156 11.40625 13.53125 C 11.433594 13.445312 11.449219 13.363281 11.449219 13.277344 L 11.449219 12.203125 C 11.449219 11.875 11.257812 11.578125 10.957031 11.441406 C 10.917969 11.421875 10.894531 11.375 10.902344 11.332031 C 10.914062 11.289062 10.953125 11.253906 10.996094 11.253906 L 11.351562 11.253906 C 12.257812 11.253906 12.996094 10.519531 12.996094 9.613281 C 12.996094 9.195312 12.835938 8.792969 12.546875 8.488281 C 12.523438 8.464844 12.515625 8.433594 12.519531 8.40625 C 12.570312 8.128906 12.542969 7.800781 12.445312 7.472656 C 11.894531 7.503906 11.476562 7.871094 11.398438 7.945312 C 11.378906 7.960938 11.355469 7.972656 11.332031 7.972656 L 9.550781 7.972656 C 9.527344 7.972656 9.503906 7.960938 9.484375 7.945312 C 9.402344 7.871094 8.984375 7.503906 8.4375 7.472656 C 8.347656 7.765625 8.316406 8.058594 8.347656 8.316406 C 8.351562 8.347656 8.339844 8.378906 8.316406 8.398438 C 7.976562 8.710938 7.777344 9.152344 7.777344 9.613281 C 7.777344 10.519531 8.515625 11.253906 9.421875 11.253906 L 9.773438 11.253906 C 9.820312 11.253906 9.859375 11.289062 9.871094 11.332031 C 9.878906 11.375 9.855469 11.421875 9.816406 11.441406 C 9.5625 11.558594 9.382812 11.789062 9.335938 12.066406 C 9.332031 12.109375 9.296875 12.144531 9.253906 12.148438 C 8.789062 12.195312 8.457031 12.085938 8.289062 11.832031 C 7.972656 11.363281 7.832031 11.363281 7.683594 11.363281 C 7.660156 11.363281 7.652344 11.367188 7.652344 11.367188 C 7.648438 11.378906 7.660156 11.449219 7.753906 11.539062 C 7.933594 11.722656 7.941406 11.734375 8.113281 12.078125 C 8.179688 12.210938 8.453125 12.636719 9.214844 12.539062 C 9.242188 12.535156 9.269531 12.542969 9.292969 12.5625 C 9.3125 12.582031 9.324219 12.609375 9.324219 12.636719 L 9.324219 13.277344 C 9.324219 13.378906 9.324219 13.453125 9.351562 13.53125 Z M 9.351562 13.53125 "/>
<path style=" stroke:none;fill-rule:nonzero;fill:rgb(99.215686%,98.823529%,93.725491%);fill-opacity:1;" d="M 12.53125 10.175781 C 12.367188 10.539062 12.003906 10.84375 11.367188 10.894531 "/>
<path style=" stroke:none;fill-rule:nonzero;fill:rgb(0%,0%,0%);fill-opacity:1;" d="M 11.367188 10.941406 C 11.34375 10.941406 11.324219 10.921875 11.320312 10.898438 C 11.316406 10.871094 11.339844 10.847656 11.363281 10.84375 C 12.058594 10.789062 12.359375 10.4375 12.484375 10.15625 C 12.496094 10.128906 12.527344 10.121094 12.550781 10.132812 C 12.574219 10.140625 12.585938 10.171875 12.574219 10.195312 C 12.378906 10.628906 11.949219 10.894531 11.371094 10.941406 C 11.371094 10.941406 11.371094 10.941406 11.367188 10.941406 Z M 11.367188 10.941406 "/>
<path style=" stroke:none;fill-rule:nonzero;fill:rgb(99.215686%,98.823529%,93.725491%);fill-opacity:1;" d="M 12.625 9.453125 C 12.644531 9.589844 12.644531 9.734375 12.621094 9.878906 "/>
<path style=" stroke:none;fill-rule:nonzero;fill:rgb(0%,0%,0%);fill-opacity:1;" d="M 12.621094 9.929688 C 12.617188 9.929688 12.613281 9.929688 12.613281 9.929688 C 12.585938 9.921875 12.566406 9.898438 12.574219 9.871094 C 12.597656 9.738281 12.597656 9.59375 12.578125 9.460938 C 12.574219 9.433594 12.59375 9.410156 12.617188 9.40625 C 12.644531 9.402344 12.667969 9.417969 12.671875 9.445312 C 12.695312 9.59375 12.695312 9.742188 12.667969 9.890625 C 12.664062 9.914062 12.644531 9.929688 12.621094 9.929688 Z M 12.621094 9.929688 "/>
<path style=" stroke:none;fill-rule:nonzero;fill:rgb(99.215686%,98.823529%,93.725491%);fill-opacity:1;" d="M 12.28125 8.804688 C 12.398438 8.886719 12.492188 9.019531 12.554688 9.183594 "/>
<path style=" stroke:none;fill-rule:nonzero;fill:rgb(0%,0%,0%);fill-opacity:1;" d="M 12.554688 9.230469 C 12.535156 9.230469 12.515625 9.21875 12.511719 9.199219 C 12.449219 9.042969 12.359375 8.921875 12.253906 8.84375 C 12.234375 8.828125 12.226562 8.800781 12.242188 8.777344 C 12.257812 8.757812 12.289062 8.75 12.3125 8.765625 C 12.433594 8.851562 12.53125 8.992188 12.601562 9.164062 C 12.609375 9.1875 12.597656 9.21875 12.574219 9.226562 C 12.566406 9.230469 12.5625 9.230469 12.554688 9.230469 Z M 12.554688 9.230469 "/>
</g>
</svg>
