<?xml version="1.0" encoding="UTF-8"?>
<svg xmlns="http://www.w3.org/2000/svg" xmlns:xlink="http://www.w3.org/1999/xlink" viewBox="0 0 30 30" width="30px" height="30px">
<g id="surface24589856">
<path style=" stroke:none;fill-rule:nonzero;fill:rgb(99.215686%,85.882354%,53.725493%);fill-opacity:1;" d="M 6.824219 26.851562 C 4.792969 26.851562 3.148438 25.207031 3.148438 23.175781 L 3.148438 6.824219 C 3.148438 4.792969 4.792969 3.148438 6.824219 3.148438 L 23.175781 3.148438 C 25.207031 3.148438 26.851562 4.792969 26.851562 6.824219 L 26.851562 23.175781 C 26.851562 25.207031 25.207031 26.851562 23.175781 26.851562 Z M 6.824219 26.851562 "/>
<path style=" stroke:none;fill-rule:nonzero;fill:rgb(100%,100%,100%);fill-opacity:1;" d="M 24.476562 16.722656 C 24.769531 16.171875 24.9375 15.539062 24.9375 14.871094 C 24.9375 13.167969 23.867188 11.722656 22.367188 11.152344 C 22.367188 11.148438 22.367188 11.148438 22.367188 11.144531 C 22.367188 8.164062 19.949219 5.746094 16.96875 5.746094 C 14.457031 5.746094 12.347656 7.46875 11.75 9.796875 C 11.371094 9.671875 10.964844 9.601562 10.546875 9.601562 C 8.566406 9.601562 6.941406 11.09375 6.71875 13.007812 C 5.378906 13.292969 4.378906 14.476562 4.378906 15.898438 C 4.378906 17.53125 5.699219 18.855469 7.332031 18.855469 C 7.378906 18.855469 7.421875 18.851562 7.46875 18.847656 C 7.464844 18.894531 7.460938 18.9375 7.460938 18.984375 C 7.460938 21.894531 9.820312 24.253906 12.730469 24.253906 C 14.382812 24.253906 15.859375 23.488281 16.824219 22.296875 C 17.382812 22.867188 18.164062 23.222656 19.027344 23.222656 C 20.222656 23.222656 21.253906 22.542969 21.765625 21.550781 C 22.039062 21.636719 22.324219 21.683594 22.625 21.683594 C 24.183594 21.683594 25.449219 20.417969 25.449219 18.855469 C 25.449219 18.003906 25.074219 17.242188 24.476562 16.722656 Z M 24.476562 16.722656 "/>
<path style=" stroke:none;fill-rule:nonzero;fill:rgb(99.215686%,98.823529%,93.725491%);fill-opacity:1;" d="M 21.980469 17.699219 L 21.980469 17.828125 L 22.753906 17.828125 L 22.753906 17.699219 C 22.753906 17.699219 23.84375 17.699219 24.164062 17.699219 C 24.804688 17.699219 25.324219 17.179688 25.324219 16.542969 C 25.324219 15.941406 24.863281 15.457031 24.28125 15.398438 C 24.285156 15.351562 24.292969 15.304688 24.292969 15.257812 C 24.292969 14.617188 23.777344 14.101562 23.136719 14.101562 C 22.769531 14.101562 22.441406 14.277344 22.230469 14.546875 C 22.195312 13.871094 21.640625 13.328125 20.953125 13.328125 C 20.242188 13.328125 19.667969 13.90625 19.667969 14.613281 C 19.667969 14.730469 19.6875 14.839844 19.714844 14.945312 C 19.550781 14.746094 19.304688 14.613281 19.027344 14.613281 C 18.566406 14.613281 18.195312 14.957031 18.136719 15.398438 C 18.089844 15.394531 18.046875 15.386719 17.996094 15.386719 C 17.359375 15.386719 16.839844 15.902344 16.839844 16.542969 C 16.839844 17.179688 17.359375 17.699219 17.996094 17.699219 C 18.636719 17.699219 20.441406 17.699219 20.441406 17.699219 Z M 21.980469 17.699219 "/>
<path style=" stroke:none;fill-rule:nonzero;fill:rgb(0%,0%,0%);fill-opacity:1;" d="M 20.953125 13.199219 C 20.175781 13.199219 19.539062 13.835938 19.539062 14.613281 C 19.539062 14.617188 19.539062 14.621094 19.539062 14.625 C 19.386719 14.535156 19.207031 14.484375 19.027344 14.484375 C 18.554688 14.484375 18.148438 14.808594 18.035156 15.257812 C 18.023438 15.257812 18.011719 15.257812 17.996094 15.257812 C 17.289062 15.257812 16.714844 15.832031 16.714844 16.542969 C 16.714844 17.25 17.289062 17.828125 17.996094 17.828125 L 21.980469 17.828125 C 22.050781 17.828125 22.109375 17.769531 22.109375 17.699219 C 22.109375 17.628906 22.050781 17.570312 21.980469 17.570312 L 17.996094 17.570312 C 17.429688 17.570312 16.96875 17.109375 16.96875 16.542969 C 16.96875 15.976562 17.429688 15.515625 17.996094 15.515625 C 18.027344 15.515625 18.058594 15.519531 18.085938 15.523438 L 18.121094 15.527344 C 18.128906 15.527344 18.132812 15.527344 18.136719 15.527344 C 18.203125 15.527344 18.257812 15.480469 18.265625 15.414062 C 18.316406 15.03125 18.640625 14.742188 19.027344 14.742188 C 19.253906 14.742188 19.46875 14.847656 19.617188 15.027344 C 19.640625 15.054688 19.679688 15.074219 19.714844 15.074219 C 19.738281 15.074219 19.757812 15.066406 19.773438 15.058594 C 19.828125 15.03125 19.855469 14.96875 19.839844 14.910156 C 19.8125 14.800781 19.796875 14.703125 19.796875 14.613281 C 19.796875 13.976562 20.316406 13.457031 20.953125 13.457031 C 21.566406 13.457031 22.070312 13.9375 22.101562 14.554688 C 22.105469 14.605469 22.140625 14.652344 22.191406 14.667969 C 22.207031 14.671875 22.21875 14.675781 22.230469 14.675781 C 22.269531 14.675781 22.308594 14.65625 22.332031 14.625 C 22.53125 14.375 22.824219 14.230469 23.136719 14.230469 C 23.703125 14.230469 24.164062 14.691406 24.164062 15.257812 C 24.164062 15.285156 24.160156 15.316406 24.15625 15.34375 L 24.152344 15.382812 C 24.148438 15.414062 24.160156 15.449219 24.179688 15.476562 C 24.203125 15.503906 24.234375 15.519531 24.265625 15.523438 C 24.796875 15.578125 25.195312 16.015625 25.195312 16.542969 C 25.195312 17.109375 24.734375 17.570312 24.164062 17.570312 L 22.753906 17.570312 C 22.679688 17.570312 22.625 17.628906 22.625 17.699219 C 22.625 17.769531 22.679688 17.828125 22.753906 17.828125 L 24.164062 17.828125 C 24.875 17.828125 25.449219 17.25 25.449219 16.542969 C 25.449219 15.925781 25.015625 15.40625 24.421875 15.289062 C 24.421875 15.277344 24.421875 15.265625 24.421875 15.257812 C 24.421875 14.546875 23.847656 13.972656 23.136719 13.972656 C 22.835938 13.972656 22.546875 14.078125 22.320312 14.269531 C 22.167969 13.652344 21.609375 13.199219 20.953125 13.199219 Z M 20.953125 13.199219 "/>
<path style=" stroke:none;fill-rule:nonzero;fill:rgb(0%,0%,0%);fill-opacity:1;" d="M 20.566406 15 C 20.207031 15 19.898438 15.257812 19.820312 15.601562 C 19.726562 15.542969 19.617188 15.515625 19.507812 15.515625 C 19.199219 15.515625 18.941406 15.746094 18.902344 16.046875 C 18.851562 16.035156 18.800781 16.027344 18.753906 16.027344 C 18.359375 16.027344 18.03125 16.335938 18.003906 16.730469 C 18 16.765625 18.027344 16.796875 18.0625 16.800781 C 18.0625 16.800781 18.066406 16.800781 18.066406 16.800781 C 18.101562 16.800781 18.128906 16.773438 18.132812 16.738281 C 18.152344 16.414062 18.425781 16.15625 18.753906 16.15625 C 18.8125 16.15625 18.875 16.167969 18.941406 16.1875 C 18.949219 16.191406 18.953125 16.191406 18.960938 16.191406 C 18.972656 16.191406 18.988281 16.1875 19 16.179688 C 19.015625 16.164062 19.027344 16.144531 19.027344 16.125 C 19.027344 15.859375 19.242188 15.640625 19.507812 15.640625 C 19.621094 15.640625 19.734375 15.6875 19.824219 15.765625 C 19.835938 15.773438 19.851562 15.78125 19.867188 15.78125 C 19.875 15.78125 19.882812 15.777344 19.890625 15.773438 C 19.914062 15.765625 19.929688 15.746094 19.929688 15.722656 C 19.957031 15.386719 20.238281 15.128906 20.566406 15.128906 C 20.621094 15.128906 20.675781 15.136719 20.742188 15.15625 C 20.75 15.15625 20.753906 15.160156 20.761719 15.160156 C 20.789062 15.160156 20.816406 15.140625 20.824219 15.113281 C 20.832031 15.078125 20.8125 15.042969 20.777344 15.03125 C 20.699219 15.011719 20.632812 15 20.566406 15 Z M 24.136719 15.386719 C 23.796875 15.386719 23.492188 15.617188 23.398438 15.945312 C 23.386719 15.980469 23.40625 16.015625 23.441406 16.027344 C 23.449219 16.027344 23.453125 16.027344 23.460938 16.027344 C 23.488281 16.027344 23.511719 16.007812 23.519531 15.980469 C 23.597656 15.707031 23.851562 15.515625 24.136719 15.515625 C 24.164062 15.515625 24.195312 15.519531 24.222656 15.519531 C 24.226562 15.523438 24.230469 15.523438 24.234375 15.523438 C 24.265625 15.523438 24.292969 15.5 24.296875 15.464844 C 24.300781 15.429688 24.277344 15.398438 24.242188 15.394531 C 24.207031 15.390625 24.171875 15.386719 24.136719 15.386719 Z M 24.136719 15.386719 "/>
<path style=" stroke:none;fill-rule:nonzero;fill:rgb(100%,100%,100%);fill-opacity:1;" d="M 6.046875 15.257812 L 3.476562 15.257812 C 3.40625 15.257812 3.347656 15.199219 3.347656 15.128906 C 3.347656 15.058594 3.40625 15 3.476562 15 L 6.046875 15 C 6.117188 15 6.175781 15.058594 6.175781 15.128906 C 6.175781 15.199219 6.117188 15.257812 6.046875 15.257812 Z M 6.820312 15.257812 L 6.5625 15.257812 C 6.492188 15.257812 6.433594 15.199219 6.433594 15.128906 C 6.433594 15.058594 6.492188 15 6.5625 15 L 6.820312 15 C 6.890625 15 6.945312 15.058594 6.945312 15.128906 C 6.945312 15.199219 6.890625 15.257812 6.820312 15.257812 Z M 8.101562 15.769531 L 5.789062 15.769531 C 5.71875 15.769531 5.660156 15.714844 5.660156 15.640625 C 5.660156 15.570312 5.71875 15.515625 5.789062 15.515625 L 8.101562 15.515625 C 8.171875 15.515625 8.230469 15.570312 8.230469 15.640625 C 8.230469 15.714844 8.171875 15.769531 8.101562 15.769531 Z M 5.277344 15.769531 L 5.019531 15.769531 C 4.949219 15.769531 4.890625 15.714844 4.890625 15.640625 C 4.890625 15.570312 4.949219 15.515625 5.019531 15.515625 L 5.277344 15.515625 C 5.347656 15.515625 5.40625 15.570312 5.40625 15.640625 C 5.40625 15.714844 5.347656 15.769531 5.277344 15.769531 Z M 4.503906 15.769531 L 3.992188 15.769531 C 3.921875 15.769531 3.863281 15.714844 3.863281 15.640625 C 3.863281 15.570312 3.921875 15.515625 3.992188 15.515625 L 4.503906 15.515625 C 4.578125 15.515625 4.632812 15.570312 4.632812 15.640625 C 4.632812 15.714844 4.578125 15.769531 4.503906 15.769531 Z M 6.046875 16.285156 L 5.535156 16.285156 C 5.460938 16.285156 5.40625 16.226562 5.40625 16.15625 C 5.40625 16.085938 5.460938 16.027344 5.535156 16.027344 L 6.046875 16.027344 C 6.117188 16.027344 6.175781 16.085938 6.175781 16.15625 C 6.175781 16.226562 6.117188 16.285156 6.046875 16.285156 Z M 6.820312 13.972656 C 6.773438 13.972656 6.605469 13.972656 6.5625 13.972656 C 6.492188 13.972656 6.433594 14.03125 6.433594 14.101562 C 6.433594 14.171875 6.492188 14.230469 6.5625 14.230469 C 6.605469 14.230469 6.773438 14.230469 6.820312 14.230469 C 6.890625 14.230469 6.945312 14.171875 6.945312 14.101562 C 6.945312 14.03125 6.890625 13.972656 6.820312 13.972656 Z M 6.820312 14.484375 C 6.773438 14.484375 5.578125 14.484375 5.535156 14.484375 C 5.460938 14.484375 5.40625 14.542969 5.40625 14.613281 C 5.40625 14.683594 5.460938 14.742188 5.535156 14.742188 C 5.578125 14.742188 6.773438 14.742188 6.820312 14.742188 C 6.890625 14.742188 6.945312 14.683594 6.945312 14.613281 C 6.945312 14.542969 6.890625 14.484375 6.820312 14.484375 Z M 8.101562 15 C 8.058594 15 7.378906 15 7.332031 15 C 7.261719 15 7.203125 15.058594 7.203125 15.128906 C 7.203125 15.199219 7.261719 15.257812 7.332031 15.257812 C 7.378906 15.257812 8.058594 15.257812 8.101562 15.257812 C 8.175781 15.257812 8.230469 15.199219 8.230469 15.128906 C 8.230469 15.058594 8.175781 15 8.101562 15 Z M 8.101562 15 "/>
<path style=" stroke:none;fill-rule:nonzero;fill:rgb(100%,100%,100%);fill-opacity:1;" d="M 20.695312 8.316406 L 18.125 8.316406 C 18.054688 8.316406 17.996094 8.261719 17.996094 8.191406 C 17.996094 8.117188 18.054688 8.0625 18.125 8.0625 L 20.695312 8.0625 C 20.765625 8.0625 20.824219 8.117188 20.824219 8.191406 C 20.824219 8.261719 20.765625 8.316406 20.695312 8.316406 Z M 21.722656 8.316406 L 21.210938 8.316406 C 21.140625 8.316406 21.082031 8.261719 21.082031 8.191406 C 21.082031 8.117188 21.140625 8.0625 21.210938 8.0625 L 21.722656 8.0625 C 21.796875 8.0625 21.851562 8.117188 21.851562 8.191406 C 21.851562 8.261719 21.796875 8.316406 21.722656 8.316406 Z M 23.007812 8.832031 L 20.441406 8.832031 C 20.367188 8.832031 20.3125 8.773438 20.3125 8.703125 C 20.3125 8.632812 20.367188 8.574219 20.441406 8.574219 L 23.007812 8.574219 C 23.082031 8.574219 23.136719 8.632812 23.136719 8.703125 C 23.136719 8.773438 23.082031 8.832031 23.007812 8.832031 Z M 19.925781 8.832031 L 19.667969 8.832031 C 19.597656 8.832031 19.539062 8.773438 19.539062 8.703125 C 19.539062 8.632812 19.597656 8.574219 19.667969 8.574219 L 19.925781 8.574219 C 19.996094 8.574219 20.054688 8.632812 20.054688 8.703125 C 20.054688 8.773438 19.996094 8.832031 19.925781 8.832031 Z M 19.148438 8.832031 L 18.640625 8.832031 C 18.570312 8.832031 18.511719 8.773438 18.511719 8.703125 C 18.511719 8.632812 18.570312 8.574219 18.640625 8.574219 L 19.148438 8.574219 C 19.21875 8.574219 19.273438 8.632812 19.273438 8.703125 C 19.273438 8.773438 19.21875 8.832031 19.148438 8.832031 Z M 21.46875 7.804688 L 20.183594 7.804688 C 20.113281 7.804688 20.054688 7.746094 20.054688 7.675781 C 20.054688 7.605469 20.113281 7.546875 20.183594 7.546875 L 21.46875 7.546875 C 21.539062 7.546875 21.597656 7.605469 21.597656 7.675781 C 21.597656 7.746094 21.539062 7.804688 21.46875 7.804688 Z M 20.695312 9.347656 L 20.183594 9.347656 C 20.113281 9.347656 20.054688 9.289062 20.054688 9.21875 C 20.054688 9.148438 20.113281 9.089844 20.183594 9.089844 L 20.695312 9.089844 C 20.765625 9.089844 20.824219 9.148438 20.824219 9.21875 C 20.824219 9.289062 20.765625 9.347656 20.695312 9.347656 Z M 20.695312 9.347656 "/>
<path style=" stroke:none;fill-rule:nonzero;fill:rgb(92.54902%,94.117647%,94.509804%);fill-opacity:1;" d="M 15.429688 9.023438 C 12.128906 9.023438 9.453125 11.699219 9.453125 15 C 9.453125 18.300781 12.128906 20.976562 15.429688 20.976562 C 18.726562 20.976562 21.402344 18.300781 21.402344 15 C 21.402344 11.699219 18.726562 9.023438 15.429688 9.023438 Z M 15.429688 9.023438 "/>
<path style=" stroke:none;fill-rule:nonzero;fill:rgb(0%,0%,0%);fill-opacity:1;" d="M 15.429688 21.15625 C 12.035156 21.15625 9.273438 18.394531 9.273438 15 C 9.273438 11.605469 12.035156 8.84375 15.429688 8.84375 C 18.820312 8.84375 21.582031 11.605469 21.582031 15 C 21.582031 18.394531 18.820312 21.15625 15.429688 21.15625 Z M 15.429688 9.203125 C 12.234375 9.203125 9.632812 11.804688 9.632812 15 C 9.632812 18.195312 12.234375 20.796875 15.429688 20.796875 C 18.625 20.796875 21.222656 18.195312 21.222656 15 C 21.222656 11.804688 18.625 9.203125 15.429688 9.203125 Z M 15.429688 9.203125 "/>
<path style=" stroke:none;fill-rule:nonzero;fill:rgb(99.215686%,85.882354%,53.725493%);fill-opacity:1;" d="M 15.429688 9.988281 C 12.660156 9.988281 10.417969 12.230469 10.417969 15 C 10.417969 17.769531 12.660156 20.011719 15.429688 20.011719 C 18.195312 20.011719 20.441406 17.769531 20.441406 15 C 20.441406 12.230469 18.195312 9.988281 15.429688 9.988281 Z M 15.429688 9.988281 "/>
<path style=" stroke:none;fill-rule:nonzero;fill:rgb(0%,0%,0%);fill-opacity:1;" d="M 20.214844 13.710938 C 20.160156 13.710938 20.109375 13.675781 20.089844 13.621094 C 20.070312 13.550781 20.046875 13.480469 20.023438 13.410156 C 19.925781 13.140625 19.804688 12.878906 19.660156 12.632812 C 19.625 12.570312 19.644531 12.492188 19.707031 12.457031 C 19.769531 12.417969 19.847656 12.441406 19.882812 12.503906 C 20.035156 12.765625 20.160156 13.039062 20.261719 13.324219 C 20.289062 13.398438 20.3125 13.472656 20.335938 13.546875 C 20.359375 13.613281 20.320312 13.683594 20.25 13.707031 C 20.238281 13.710938 20.226562 13.710938 20.214844 13.710938 Z M 20.214844 13.710938 "/>
<path style=" stroke:none;fill-rule:nonzero;fill:rgb(0%,0%,0%);fill-opacity:1;" d="M 15.429688 20.148438 C 12.589844 20.148438 10.277344 17.847656 10.277344 15.015625 C 10.277344 12.183594 12.589844 9.882812 15.429688 9.882812 C 16.902344 9.882812 18.308594 10.511719 19.285156 11.613281 C 19.359375 11.695312 19.429688 11.78125 19.5 11.871094 C 19.542969 11.925781 19.53125 12.007812 19.476562 12.050781 C 19.421875 12.09375 19.339844 12.085938 19.296875 12.027344 C 19.230469 11.945312 19.164062 11.863281 19.09375 11.785156 C 18.164062 10.738281 16.828125 10.136719 15.429688 10.136719 C 12.730469 10.136719 10.535156 12.324219 10.535156 15.015625 C 10.535156 17.703125 12.730469 19.890625 15.429688 19.890625 C 18.125 19.890625 20.320312 17.703125 20.320312 15.015625 C 20.320312 14.769531 20.300781 14.523438 20.265625 14.285156 C 20.253906 14.214844 20.304688 14.148438 20.375 14.136719 C 20.445312 14.125 20.507812 14.175781 20.519531 14.246094 C 20.558594 14.496094 20.578125 14.757812 20.578125 15.015625 C 20.578125 17.847656 18.265625 20.148438 15.429688 20.148438 Z M 15.429688 20.148438 "/>
<path style=" stroke:none;fill-rule:nonzero;fill:rgb(99.215686%,98.823529%,93.725491%);fill-opacity:1;" d="M 11.445312 21.039062 C 11.445312 21.039062 11.847656 21.039062 12.34375 21.039062 C 12.839844 21.039062 13.242188 20.636719 13.242188 20.140625 C 13.242188 19.683594 12.902344 19.308594 12.457031 19.253906 C 12.464844 19.207031 12.472656 19.160156 12.472656 19.113281 C 12.472656 18.613281 12.070312 18.210938 11.574219 18.210938 C 11.308594 18.210938 11.070312 18.328125 10.90625 18.511719 C 10.808594 18.046875 10.398438 17.699219 9.902344 17.699219 C 9.335938 17.699219 8.875 18.160156 8.875 18.726562 C 8.875 18.777344 8.882812 18.824219 8.890625 18.871094 C 8.777344 18.78125 8.640625 18.726562 8.488281 18.726562 C 8.171875 18.726562 7.910156 18.953125 7.859375 19.253906 C 7.8125 19.246094 7.765625 19.242188 7.71875 19.242188 C 7.222656 19.242188 6.820312 19.644531 6.820312 20.140625 C 6.820312 20.636719 7.222656 21.039062 7.71875 21.039062 C 8.214844 21.039062 9.644531 21.039062 9.644531 21.039062 L 9.644531 21.167969 L 11.445312 21.167969 Z M 11.445312 21.039062 "/>
<path style=" stroke:none;fill-rule:nonzero;fill:rgb(0%,0%,0%);fill-opacity:1;" d="M 11.894531 19.882812 C 11.859375 19.882812 11.828125 19.855469 11.828125 19.820312 C 11.828125 19.503906 12.085938 19.25 12.398438 19.25 C 12.410156 19.25 12.589844 19.25 12.71875 19.285156 C 12.753906 19.292969 12.773438 19.328125 12.765625 19.363281 C 12.753906 19.398438 12.71875 19.417969 12.6875 19.40625 C 12.570312 19.375 12.402344 19.375 12.398438 19.378906 C 12.15625 19.378906 11.957031 19.574219 11.957031 19.820312 C 11.957031 19.855469 11.929688 19.882812 11.894531 19.882812 Z M 10.160156 20.910156 C 10.089844 20.910156 10.03125 20.96875 10.03125 21.039062 C 10.03125 21.109375 10.089844 21.167969 10.160156 21.167969 C 10.230469 21.167969 10.289062 21.109375 10.289062 21.039062 C 10.289062 20.96875 10.230469 20.910156 10.160156 20.910156 Z M 10.160156 20.910156 "/>
<path style=" stroke:none;fill-rule:nonzero;fill:rgb(0%,0%,0%);fill-opacity:1;" d="M 12.34375 21.167969 L 11.445312 21.167969 C 11.375 21.167969 11.316406 21.109375 11.316406 21.039062 C 11.316406 20.96875 11.375 20.910156 11.445312 20.910156 L 12.34375 20.910156 C 12.769531 20.910156 13.113281 20.566406 13.113281 20.140625 C 13.113281 19.753906 12.824219 19.429688 12.441406 19.378906 C 12.40625 19.375 12.375 19.355469 12.355469 19.328125 C 12.335938 19.300781 12.328125 19.265625 12.332031 19.230469 C 12.335938 19.191406 12.34375 19.152344 12.34375 19.113281 C 12.34375 18.6875 12 18.339844 11.574219 18.339844 C 11.355469 18.339844 11.152344 18.433594 11.003906 18.597656 C 10.96875 18.632812 10.921875 18.648438 10.875 18.636719 C 10.828125 18.625 10.792969 18.585938 10.78125 18.539062 C 10.695312 18.125 10.324219 17.828125 9.902344 17.828125 C 9.40625 17.828125 9.003906 18.230469 9.003906 18.726562 C 9.003906 18.761719 9.007812 18.796875 9.011719 18.832031 C 9.019531 18.886719 8.996094 18.945312 8.953125 18.972656 C 8.90625 19 8.847656 19.003906 8.808594 18.96875 C 8.714844 18.894531 8.605469 18.855469 8.488281 18.855469 C 8.242188 18.855469 8.027344 19.03125 7.984375 19.277344 C 7.972656 19.347656 7.910156 19.390625 7.839844 19.382812 C 7.796875 19.375 7.757812 19.367188 7.71875 19.367188 C 7.292969 19.367188 6.945312 19.714844 6.945312 20.140625 C 6.945312 20.566406 7.292969 20.910156 7.71875 20.910156 L 9.644531 20.910156 C 9.714844 20.910156 9.773438 20.96875 9.773438 21.039062 C 9.773438 21.109375 9.714844 21.167969 9.644531 21.167969 L 7.71875 21.167969 C 7.152344 21.167969 6.691406 20.707031 6.691406 20.140625 C 6.691406 19.574219 7.152344 19.113281 7.71875 19.113281 C 7.734375 19.113281 7.746094 19.113281 7.761719 19.113281 C 7.867188 18.808594 8.15625 18.597656 8.488281 18.597656 C 8.578125 18.597656 8.667969 18.613281 8.75 18.644531 C 8.792969 18.042969 9.292969 17.570312 9.902344 17.570312 C 10.375 17.570312 10.792969 17.859375 10.96875 18.28125 C 11.144531 18.15625 11.355469 18.085938 11.574219 18.085938 C 12.140625 18.085938 12.601562 18.546875 12.601562 19.113281 C 12.601562 19.125 12.601562 19.136719 12.601562 19.148438 C 13.046875 19.261719 13.371094 19.667969 13.371094 20.140625 C 13.371094 20.707031 12.910156 21.167969 12.34375 21.167969 Z M 12.34375 21.167969 "/>
<path style=" stroke:none;fill-rule:nonzero;fill:rgb(0%,0%,0%);fill-opacity:1;" d="M 10.929688 20.910156 C 10.890625 20.910156 10.714844 20.910156 10.671875 20.910156 C 10.601562 20.910156 10.546875 20.96875 10.546875 21.039062 C 10.546875 21.109375 10.601562 21.167969 10.671875 21.167969 C 10.714844 21.167969 10.890625 21.167969 10.929688 21.167969 C 11 21.167969 11.058594 21.109375 11.058594 21.039062 C 11.058594 20.96875 11 20.910156 10.929688 20.910156 Z M 10.929688 20.910156 "/>
<path style=" stroke:none;fill-rule:nonzero;fill:rgb(99.607843%,99.215686%,93.725491%);fill-opacity:1;" d="M 18.394531 12.898438 C 18.46875 12.492188 18.421875 12 18.257812 11.507812 C 17.429688 11.507812 16.792969 12.070312 16.683594 12.171875 L 14.316406 12.171875 C 14.207031 12.070312 13.570312 11.507812 12.742188 11.507812 C 12.59375 11.953125 12.546875 12.394531 12.589844 12.777344 C 12.125 13.199219 11.828125 13.808594 11.828125 14.484375 C 11.828125 15.761719 12.867188 16.800781 14.144531 16.800781 L 14.613281 16.800781 C 14.246094 16.96875 13.972656 17.3125 13.90625 17.726562 C 13.488281 17.769531 12.988281 17.730469 12.742188 17.367188 C 12.289062 16.683594 12.0625 16.683594 11.832031 16.683594 C 11.605469 16.683594 11.605469 16.910156 11.832031 17.140625 C 12.0625 17.367188 12.0625 17.367188 12.289062 17.820312 C 12.476562 18.195312 12.960938 18.621094 13.886719 18.503906 L 13.886719 19.359375 C 13.886719 19.527344 13.890625 19.652344 13.949219 19.796875 C 14.507812 19.988281 15.570312 20.132812 16.886719 19.804688 C 16.9375 19.667969 16.96875 19.519531 16.96875 19.359375 L 16.96875 17.929688 C 16.96875 17.425781 16.671875 16.996094 16.242188 16.796875 L 16.714844 16.796875 C 17.992188 16.796875 19.027344 15.761719 19.027344 14.484375 C 19.027344 13.871094 18.785156 13.3125 18.394531 12.898438 Z M 18.394531 12.898438 "/>
<path style=" stroke:none;fill-rule:nonzero;fill:rgb(0%,0%,0%);fill-opacity:1;" d="M 15.351562 20.128906 C 14.601562 20.128906 14.097656 19.984375 13.910156 19.917969 C 13.875 19.90625 13.84375 19.878906 13.832031 19.847656 C 13.761719 19.679688 13.757812 19.539062 13.757812 19.363281 L 13.757812 18.648438 C 12.6875 18.722656 12.277344 18.085938 12.171875 17.878906 C 11.953125 17.441406 11.953125 17.441406 11.742188 17.230469 C 11.566406 17.054688 11.496094 16.863281 11.554688 16.71875 C 11.597656 16.617188 11.699219 16.554688 11.832031 16.554688 C 12.140625 16.554688 12.390625 16.609375 12.851562 17.296875 C 13.042969 17.585938 13.457031 17.628906 13.800781 17.609375 C 13.863281 17.34375 14 17.109375 14.195312 16.929688 L 14.144531 16.929688 C 12.796875 16.929688 11.703125 15.832031 11.703125 14.488281 C 11.703125 13.824219 11.976562 13.1875 12.457031 12.726562 C 12.421875 12.332031 12.476562 11.898438 12.621094 11.46875 C 12.640625 11.414062 12.6875 11.378906 12.742188 11.378906 C 13.546875 11.378906 14.175781 11.875 14.367188 12.042969 L 16.636719 12.042969 C 16.824219 11.875 17.453125 11.378906 18.257812 11.378906 C 18.3125 11.378906 18.363281 11.414062 18.378906 11.46875 C 18.539062 11.945312 18.59375 12.4375 18.53125 12.859375 C 18.933594 13.308594 19.15625 13.882812 19.15625 14.484375 C 19.15625 15.832031 18.058594 16.925781 16.714844 16.925781 L 16.660156 16.925781 C 16.933594 17.183594 17.097656 17.542969 17.097656 17.929688 L 17.097656 19.363281 C 17.097656 19.523438 17.066406 19.6875 17.003906 19.851562 C 16.988281 19.890625 16.957031 19.917969 16.914062 19.929688 C 16.320312 20.078125 15.792969 20.128906 15.351562 20.128906 Z M 14.050781 19.695312 C 14.394531 19.804688 15.378906 20.035156 16.785156 19.695312 C 16.824219 19.585938 16.839844 19.472656 16.839844 19.363281 L 16.839844 17.929688 C 16.839844 17.496094 16.585938 17.097656 16.1875 16.917969 C 16.132812 16.890625 16.101562 16.832031 16.117188 16.773438 C 16.128906 16.714844 16.179688 16.671875 16.242188 16.671875 L 16.714844 16.671875 C 17.917969 16.671875 18.898438 15.691406 18.898438 14.484375 C 18.898438 13.929688 18.683594 13.398438 18.300781 12.988281 C 18.273438 12.957031 18.261719 12.917969 18.265625 12.878906 C 18.332031 12.511719 18.296875 12.074219 18.164062 11.640625 C 17.4375 11.679688 16.878906 12.164062 16.773438 12.265625 C 16.75 12.289062 16.71875 12.300781 16.683594 12.300781 L 14.316406 12.300781 C 14.285156 12.300781 14.253906 12.289062 14.230469 12.265625 C 14.121094 12.164062 13.566406 11.679688 12.835938 11.640625 C 12.71875 12.027344 12.675781 12.414062 12.71875 12.761719 C 12.722656 12.800781 12.707031 12.84375 12.675781 12.871094 C 12.21875 13.285156 11.957031 13.875 11.957031 14.484375 C 11.957031 15.691406 12.9375 16.671875 14.144531 16.671875 L 14.613281 16.671875 C 14.675781 16.671875 14.726562 16.710938 14.738281 16.773438 C 14.753906 16.832031 14.722656 16.890625 14.667969 16.914062 C 14.332031 17.070312 14.09375 17.382812 14.03125 17.75 C 14.023438 17.804688 13.976562 17.851562 13.917969 17.855469 C 13.304688 17.917969 12.859375 17.773438 12.636719 17.4375 C 12.21875 16.8125 12.03125 16.8125 11.832031 16.8125 C 11.800781 16.8125 11.789062 16.820312 11.789062 16.820312 C 11.785156 16.835938 11.804688 16.925781 11.925781 17.046875 C 12.167969 17.289062 12.175781 17.308594 12.402344 17.765625 C 12.492188 17.941406 12.859375 18.503906 13.871094 18.378906 C 13.90625 18.375 13.945312 18.382812 13.972656 18.410156 C 14 18.433594 14.015625 18.46875 14.015625 18.503906 L 14.015625 19.363281 C 14.015625 19.496094 14.015625 19.59375 14.050781 19.695312 Z M 14.050781 19.695312 "/>
<path style=" stroke:none;fill-rule:nonzero;fill:rgb(99.607843%,99.215686%,93.725491%);fill-opacity:1;" d="M 18.28125 15.234375 C 18.0625 15.71875 17.582031 16.121094 16.734375 16.1875 "/>
<path style=" stroke:none;fill-rule:nonzero;fill:rgb(0%,0%,0%);fill-opacity:1;" d="M 16.734375 16.253906 C 16.703125 16.253906 16.671875 16.226562 16.671875 16.195312 C 16.667969 16.160156 16.695312 16.128906 16.730469 16.125 C 17.652344 16.050781 18.050781 15.585938 18.222656 15.207031 C 18.234375 15.171875 18.273438 15.160156 18.304688 15.175781 C 18.339844 15.1875 18.351562 15.226562 18.339844 15.257812 C 18.078125 15.839844 17.507812 16.191406 16.738281 16.253906 C 16.738281 16.253906 16.734375 16.253906 16.734375 16.253906 Z M 16.734375 16.253906 "/>
<path style=" stroke:none;fill-rule:nonzero;fill:rgb(99.607843%,99.215686%,93.725491%);fill-opacity:1;" d="M 18.40625 14.269531 C 18.433594 14.453125 18.433594 14.648438 18.398438 14.839844 "/>
<path style=" stroke:none;fill-rule:nonzero;fill:rgb(0%,0%,0%);fill-opacity:1;" d="M 18.398438 14.90625 C 18.394531 14.90625 18.390625 14.90625 18.386719 14.90625 C 18.355469 14.898438 18.332031 14.863281 18.335938 14.832031 C 18.367188 14.652344 18.371094 14.460938 18.34375 14.28125 C 18.339844 14.246094 18.363281 14.210938 18.398438 14.207031 C 18.429688 14.203125 18.464844 14.226562 18.46875 14.261719 C 18.5 14.460938 18.496094 14.65625 18.464844 14.851562 C 18.457031 14.882812 18.429688 14.90625 18.398438 14.90625 Z M 18.398438 14.90625 "/>
<path style=" stroke:none;fill-rule:nonzero;fill:rgb(99.607843%,99.215686%,93.725491%);fill-opacity:1;" d="M 17.949219 13.410156 C 18.105469 13.519531 18.230469 13.699219 18.3125 13.910156 "/>
<path style=" stroke:none;fill-rule:nonzero;fill:rgb(0%,0%,0%);fill-opacity:1;" d="M 18.3125 13.976562 C 18.285156 13.976562 18.261719 13.960938 18.253906 13.933594 C 18.171875 13.726562 18.054688 13.5625 17.914062 13.464844 C 17.882812 13.445312 17.878906 13.402344 17.898438 13.375 C 17.917969 13.34375 17.960938 13.339844 17.988281 13.359375 C 18.148438 13.472656 18.28125 13.65625 18.371094 13.886719 C 18.386719 13.921875 18.367188 13.957031 18.335938 13.972656 C 18.328125 13.972656 18.320312 13.976562 18.3125 13.976562 Z M 18.3125 13.976562 "/>
</g>
</svg>
